<svg width="1222" height="563" viewBox="0 0 1222 563" fill="none" xmlns="http://www.w3.org/2000/svg">
<g filter="url(#filter0_d_79_877)">
<g clip-path="url(#clip0_79_877)">
<rect x="85.5" y="36" width="321" height="483" rx="12" fill="white"/>
<path d="M85.5 171H406.5V44C406.5 39.5817 402.918 36 398.5 36H93.5C89.0817 36 85.5 39.5817 85.5 44V171Z" fill="#F5F5F6"/>
<circle cx="107" cy="57.5" r="5.5" fill="#EA356B"/>
<circle cx="122" cy="57.5" r="5.5" fill="#EAD835"/>
<circle cx="137" cy="57.5" r="5.5" fill="#35EA68"/>
<rect x="95.5" y="293" width="114" height="161" rx="8" fill="#F5F5F6"/>
<rect x="160.5" y="425" width="40" height="15" rx="4" fill="#E5E6E8"/>
<ellipse cx="129.755" cy="433.216" rx="7.2162" ry="7.21606" fill="#F5F5F6"/>
<path d="M136.52 433.216C136.52 436.952 133.492 439.981 129.755 439.981C126.019 439.981 122.99 436.952 122.99 433.216C122.99 429.48 126.019 426.451 129.755 426.451C133.492 426.451 136.52 429.48 136.52 433.216Z" stroke="#A9A9A9" stroke-opacity="0.3" stroke-width="0.902016"/>
<ellipse cx="120.736" cy="433.216" rx="7.2162" ry="7.21606" fill="#F5F5F6"/>
<path d="M127.501 433.216C127.501 436.952 124.472 439.981 120.736 439.981C116.999 439.981 113.971 436.952 113.971 433.216C113.971 429.48 116.999 426.451 120.736 426.451C124.472 426.451 127.501 429.48 127.501 433.216Z" stroke="#A9A9A9" stroke-opacity="0.3" stroke-width="0.902016"/>
<ellipse cx="111.716" cy="433.216" rx="7.2162" ry="7.21606" fill="#F5F5F6"/>
<path d="M118.481 433.216C118.481 436.952 115.453 439.981 111.716 439.981C107.98 439.981 104.951 436.952 104.951 433.216C104.951 429.48 107.98 426.451 111.716 426.451C115.453 426.451 118.481 429.48 118.481 433.216Z" stroke="#A9A9A9" stroke-opacity="0.3" stroke-width="0.902016"/>
<rect x="222.5" y="293" width="114" height="161" rx="8" fill="#F5F5F6"/>
<rect x="287.5" y="425" width="40" height="15" rx="4" fill="#E5E6E8"/>
<ellipse cx="256.755" cy="433.216" rx="7.2162" ry="7.21606" fill="#F5F5F6"/>
<path d="M263.52 433.216C263.52 436.952 260.492 439.981 256.755 439.981C253.019 439.981 249.99 436.952 249.99 433.216C249.99 429.48 253.019 426.451 256.755 426.451C260.492 426.451 263.52 429.48 263.52 433.216Z" stroke="#A9A9A9" stroke-opacity="0.3" stroke-width="0.902016"/>
<ellipse cx="247.736" cy="433.216" rx="7.2162" ry="7.21606" fill="#F5F5F6"/>
<path d="M254.501 433.216C254.501 436.952 251.472 439.981 247.736 439.981C243.999 439.981 240.971 436.952 240.971 433.216C240.971 429.48 243.999 426.451 247.736 426.451C251.472 426.451 254.501 429.48 254.501 433.216Z" stroke="#A9A9A9" stroke-opacity="0.3" stroke-width="0.902016"/>
<ellipse cx="238.716" cy="433.216" rx="7.2162" ry="7.21606" fill="#F5F5F6"/>
<path d="M245.481 433.216C245.481 436.952 242.453 439.981 238.716 439.981C234.98 439.981 231.951 436.952 231.951 433.216C231.951 429.48 234.98 426.451 238.716 426.451C242.453 426.451 245.481 429.48 245.481 433.216Z" stroke="#A9A9A9" stroke-opacity="0.3" stroke-width="0.902016"/>
<rect x="349.5" y="293" width="114" height="161" rx="8" fill="#F5F5F6"/>
<ellipse cx="383.755" cy="433.216" rx="7.2162" ry="7.21606" fill="#F5F5F6"/>
<path d="M390.52 433.216C390.52 436.952 387.492 439.981 383.755 439.981C380.019 439.981 376.99 436.952 376.99 433.216C376.99 429.48 380.019 426.451 383.755 426.451C387.492 426.451 390.52 429.48 390.52 433.216Z" stroke="#A9A9A9" stroke-opacity="0.3" stroke-width="0.902016"/>
<ellipse cx="374.736" cy="433.216" rx="7.2162" ry="7.21606" fill="#F5F5F6"/>
<path d="M381.501 433.216C381.501 436.952 378.472 439.981 374.736 439.981C370.999 439.981 367.971 436.952 367.971 433.216C367.971 429.48 370.999 426.451 374.736 426.451C378.472 426.451 381.501 429.48 381.501 433.216Z" stroke="#A9A9A9" stroke-opacity="0.3" stroke-width="0.902016"/>
<ellipse cx="365.716" cy="433.216" rx="7.2162" ry="7.21606" fill="#F5F5F6"/>
<path d="M372.481 433.216C372.481 436.952 369.453 439.981 365.716 439.981C361.98 439.981 358.951 436.952 358.951 433.216C358.951 429.48 361.98 426.451 365.716 426.451C369.453 426.451 372.481 429.48 372.481 433.216Z" stroke="#A9A9A9" stroke-opacity="0.3" stroke-width="0.902016"/>
<rect x="101.5" y="125" width="147" height="15" rx="7.5" fill="#D8D8DB"/>
<rect x="101.5" y="99" width="277" height="15" rx="7.5" fill="#D8D8DB"/>
<rect x="85.5" y="476" width="321" height="43" fill="#F5F5F6"/>
<rect x="95.5" y="188" width="296" height="41" rx="8" fill="#F5F5F6"/>
<rect x="95.5" y="250" width="72" height="22" rx="8" fill="#2370F2"/>
<rect x="175.5" y="250" width="72" height="22" rx="8" fill="#F5F5F6"/>
<rect x="255.5" y="250" width="72" height="22" rx="8" fill="#F5F5F6"/>
<rect x="335.5" y="250" width="72" height="22" rx="8" fill="#F5F5F6"/>
</g>
</g>
<g filter="url(#filter1_d_79_877)">
<rect x="450.5" y="36" width="321" height="483" rx="12" fill="white" shape-rendering="crispEdges"/>
<circle cx="472" cy="57.5" r="5.5" fill="#EA356B"/>
<circle cx="487" cy="57.5" r="5.5" fill="#EAD835"/>
<circle cx="502" cy="57.5" r="5.5" fill="#35EA68"/>
<rect width="289" height="85" rx="8" transform="matrix(1 0 0 -1 466.5 171)" fill="#F5F5F6"/>
<rect x="466.5" y="193" width="289" height="41" rx="8" fill="#F5F5F6"/>
<rect x="466.5" y="256" width="289" height="159" rx="8" fill="#F5F5F6"/>
<rect width="122" height="40" rx="8" transform="matrix(1 0 0 -1 466.5 495)" fill="#2370F2"/>
</g>
<g filter="url(#filter2_d_79_877)">
<rect x="815.5" y="36" width="321" height="254" rx="12" fill="white" shape-rendering="crispEdges"/>
<circle cx="837" cy="57.5" r="5.5" fill="#EA356B"/>
<circle cx="852" cy="57.5" r="5.5" fill="#EAD835"/>
<circle cx="867" cy="57.5" r="5.5" fill="#35EA68"/>
<rect x="831.5" y="86" width="289" height="41" rx="8" fill="#F5F5F6"/>
<rect x="831.5" y="156" width="220" height="41" rx="8" fill="#F5F5F6"/>
<rect width="289" height="40" rx="8" transform="matrix(1 0 0 -1 831.5 266)" fill="#2370F2"/>
</g>
<defs>
<filter id="filter0_d_79_877" x="45.5" y="0" width="401" height="563" filterUnits="userSpaceOnUse" color-interpolation-filters="sRGB">
<feFlood flood-opacity="0" result="BackgroundImageFix"/>
<feColorMatrix in="SourceAlpha" type="matrix" values="0 0 0 0 0 0 0 0 0 0 0 0 0 0 0 0 0 0 127 0" result="hardAlpha"/>
<feMorphology radius="10" operator="erode" in="SourceAlpha" result="effect1_dropShadow_79_877"/>
<feOffset dy="4"/>
<feGaussianBlur stdDeviation="25"/>
<feComposite in2="hardAlpha" operator="out"/>
<feColorMatrix type="matrix" values="0 0 0 0 0 0 0 0 0 0 0 0 0 0 0 0 0 0 0.07 0"/>
<feBlend mode="normal" in2="BackgroundImageFix" result="effect1_dropShadow_79_877"/>
<feBlend mode="normal" in="SourceGraphic" in2="effect1_dropShadow_79_877" result="shape"/>
</filter>
<filter id="filter1_d_79_877" x="410.5" y="0" width="401" height="563" filterUnits="userSpaceOnUse" color-interpolation-filters="sRGB">
<feFlood flood-opacity="0" result="BackgroundImageFix"/>
<feColorMatrix in="SourceAlpha" type="matrix" values="0 0 0 0 0 0 0 0 0 0 0 0 0 0 0 0 0 0 127 0" result="hardAlpha"/>
<feMorphology radius="10" operator="erode" in="SourceAlpha" result="effect1_dropShadow_79_877"/>
<feOffset dy="4"/>
<feGaussianBlur stdDeviation="25"/>
<feComposite in2="hardAlpha" operator="out"/>
<feColorMatrix type="matrix" values="0 0 0 0 0 0 0 0 0 0 0 0 0 0 0 0 0 0 0.07 0"/>
<feBlend mode="normal" in2="BackgroundImageFix" result="effect1_dropShadow_79_877"/>
<feBlend mode="normal" in="SourceGraphic" in2="effect1_dropShadow_79_877" result="shape"/>
</filter>
<filter id="filter2_d_79_877" x="775.5" y="0" width="401" height="334" filterUnits="userSpaceOnUse" color-interpolation-filters="sRGB">
<feFlood flood-opacity="0" result="BackgroundImageFix"/>
<feColorMatrix in="SourceAlpha" type="matrix" values="0 0 0 0 0 0 0 0 0 0 0 0 0 0 0 0 0 0 127 0" result="hardAlpha"/>
<feMorphology radius="10" operator="erode" in="SourceAlpha" result="effect1_dropShadow_79_877"/>
<feOffset dy="4"/>
<feGaussianBlur stdDeviation="25"/>
<feComposite in2="hardAlpha" operator="out"/>
<feColorMatrix type="matrix" values="0 0 0 0 0 0 0 0 0 0 0 0 0 0 0 0 0 0 0.07 0"/>
<feBlend mode="normal" in2="BackgroundImageFix" result="effect1_dropShadow_79_877"/>
<feBlend mode="normal" in="SourceGraphic" in2="effect1_dropShadow_79_877" result="shape"/>
</filter>
<clipPath id="clip0_79_877">
<rect x="85.5" y="36" width="321" height="483" rx="12" fill="white"/>
</clipPath>
</defs>
</svg>
