<svg width="1302" height="586" viewBox="0 0 1302 586" fill="none" xmlns="http://www.w3.org/2000/svg">
<g clip-path="url(#clip0_79_1947)" filter="url(#filter0_d_79_1947)">
<g filter="url(#filter1_d_79_1947)">
<rect x="40" y="36" width="1222" height="506" rx="16" fill="white"/>
</g>
<circle cx="65.5" cy="64.5" r="5.5" fill="#EA356B"/>
<circle cx="80.5" cy="64.5" r="5.5" fill="#EAD835"/>
<circle cx="95.5" cy="64.5" r="5.5" fill="#35EA68"/>
<rect x="159" y="83" width="111" height="40" rx="20" fill="#1877F2"/>
<rect x="288" y="83" width="111" height="40" rx="20" fill="#F5F5F6"/>
<rect x="417" y="83" width="111" height="40" rx="20" fill="#F5F5F6"/>
<rect x="546" y="83" width="111" height="40" rx="20" fill="#F5F5F6"/>
<rect x="675" y="83" width="111" height="40" rx="20" fill="#F5F5F6"/>
<path d="M159 179C159 174.582 162.582 171 167 171H391C395.418 171 399 174.582 399 179V320H159V179Z" fill="#F5F5F6"/>
<rect x="344" y="195" width="36" height="33" rx="8" fill="#E4E4E7"/>
<path d="M166 331L167.572 335.837H172.657L168.543 338.826L170.114 343.663L166 340.674L161.886 343.663L163.457 338.826L159.343 335.837H164.428L166 331Z" fill="#C7C7CD"/>
<path d="M184 331L185.572 335.837H190.657L186.543 338.826L188.114 343.663L184 340.674L179.886 343.663L181.457 338.826L177.343 335.837H182.428L184 331Z" fill="#C7C7CD"/>
<path d="M202 331L203.572 335.837H208.657L204.543 338.826L206.114 343.663L202 340.674L197.886 343.663L199.457 338.826L195.343 335.837H200.428L202 331Z" fill="#C7C7CD"/>
<path d="M220 331L221.572 335.837H226.657L222.543 338.826L224.114 343.663L220 340.674L215.886 343.663L217.457 338.826L213.343 335.837H218.428L220 331Z" fill="#C7C7CD"/>
<path d="M238 331L239.572 335.837H244.657L240.543 338.826L242.114 343.663L238 340.674L233.886 343.663L235.457 338.826L231.343 335.837H236.428L238 331Z" fill="#E4E4E7"/>
<rect x="159" y="360" width="179" height="16" rx="8" fill="#F5F5F6"/>
<path d="M417 179C417 174.582 420.582 171 425 171H649C653.418 171 657 174.582 657 179V320H417V179Z" fill="#F5F5F6"/>
<rect x="602" y="195" width="36" height="33" rx="8" fill="#E4E4E7"/>
<path d="M424 331L425.572 335.837H430.657L426.543 338.826L428.114 343.663L424 340.674L419.886 343.663L421.457 338.826L417.343 335.837H422.428L424 331Z" fill="#C7C7CD"/>
<path d="M442 331L443.572 335.837H448.657L444.543 338.826L446.114 343.663L442 340.674L437.886 343.663L439.457 338.826L435.343 335.837H440.428L442 331Z" fill="#C7C7CD"/>
<path d="M460 331L461.572 335.837H466.657L462.543 338.826L464.114 343.663L460 340.674L455.886 343.663L457.457 338.826L453.343 335.837H458.428L460 331Z" fill="#C7C7CD"/>
<path d="M478 331L479.572 335.837H484.657L480.543 338.826L482.114 343.663L478 340.674L473.886 343.663L475.457 338.826L471.343 335.837H476.428L478 331Z" fill="#C7C7CD"/>
<path d="M496 331L497.572 335.837H502.657L498.543 338.826L500.114 343.663L496 340.674L491.886 343.663L493.457 338.826L489.343 335.837H494.428L496 331Z" fill="#E4E4E7"/>
<rect x="417" y="360" width="179" height="16" rx="8" fill="#F5F5F6"/>
<path d="M675 179C675 174.582 678.582 171 683 171H907C911.418 171 915 174.582 915 179V320H675V179Z" fill="#F5F5F6"/>
<rect x="860" y="195" width="36" height="33" rx="8" fill="#E4E4E7"/>
<path d="M682 331L683.572 335.837H688.657L684.543 338.826L686.114 343.663L682 340.674L677.886 343.663L679.457 338.826L675.343 335.837H680.428L682 331Z" fill="#C7C7CD"/>
<path d="M700 331L701.572 335.837H706.657L702.543 338.826L704.114 343.663L700 340.674L695.886 343.663L697.457 338.826L693.343 335.837H698.428L700 331Z" fill="#C7C7CD"/>
<path d="M718 331L719.572 335.837H724.657L720.543 338.826L722.114 343.663L718 340.674L713.886 343.663L715.457 338.826L711.343 335.837H716.428L718 331Z" fill="#C7C7CD"/>
<path d="M736 331L737.572 335.837H742.657L738.543 338.826L740.114 343.663L736 340.674L731.886 343.663L733.457 338.826L729.343 335.837H734.428L736 331Z" fill="#C7C7CD"/>
<path d="M754 331L755.572 335.837H760.657L756.543 338.826L758.114 343.663L754 340.674L749.886 343.663L751.457 338.826L747.343 335.837H752.428L754 331Z" fill="#E4E4E7"/>
<rect x="675" y="360" width="179" height="16" rx="8" fill="#F5F5F6"/>
<path d="M939 179C939 174.582 942.582 171 947 171H1171C1175.42 171 1179 174.582 1179 179V320H939V179Z" fill="#F5F5F6"/>
<rect x="1124" y="195" width="36" height="33" rx="8" fill="#E4E4E7"/>
<path d="M946 331L947.572 335.837H952.657L948.543 338.826L950.114 343.663L946 340.674L941.886 343.663L943.457 338.826L939.343 335.837H944.428L946 331Z" fill="#C7C7CD"/>
<path d="M964 331L965.572 335.837H970.657L966.543 338.826L968.114 343.663L964 340.674L959.886 343.663L961.457 338.826L957.343 335.837H962.428L964 331Z" fill="#C7C7CD"/>
<path d="M982 331L983.572 335.837H988.657L984.543 338.826L986.114 343.663L982 340.674L977.886 343.663L979.457 338.826L975.343 335.837H980.428L982 331Z" fill="#C7C7CD"/>
<path d="M1000 331L1001.57 335.837H1006.66L1002.54 338.826L1004.11 343.663L1000 340.674L995.886 343.663L997.457 338.826L993.343 335.837H998.428L1000 331Z" fill="#C7C7CD"/>
<path d="M1018 331L1019.57 335.837H1024.66L1020.54 338.826L1022.11 343.663L1018 340.674L1013.89 343.663L1015.46 338.826L1011.34 335.837H1016.43L1018 331Z" fill="#E4E4E7"/>
<rect x="939" y="360" width="179" height="16" rx="8" fill="#F5F5F6"/>
<path d="M1203 179C1203 174.582 1206.58 171 1211 171H1435C1439.42 171 1443 174.582 1443 179V320H1203V179Z" fill="#F5F5F6"/>
<path d="M1210 331L1211.57 335.837H1216.66L1212.54 338.826L1214.11 343.663L1210 340.674L1205.89 343.663L1207.46 338.826L1203.34 335.837H1208.43L1210 331Z" fill="#C7C7CD"/>
<path d="M1228 331L1229.57 335.837H1234.66L1230.54 338.826L1232.11 343.663L1228 340.674L1223.89 343.663L1225.46 338.826L1221.34 335.837H1226.43L1228 331Z" fill="#C7C7CD"/>
<path d="M1246 331L1247.57 335.837H1252.66L1248.54 338.826L1250.11 343.663L1246 340.674L1241.89 343.663L1243.46 338.826L1239.34 335.837H1244.43L1246 331Z" fill="#C7C7CD"/>
<path d="M1264 331L1265.57 335.837H1270.66L1266.54 338.826L1268.11 343.663L1264 340.674L1259.89 343.663L1261.46 338.826L1257.34 335.837H1262.43L1264 331Z" fill="#C7C7CD"/>
<rect x="1203" y="360" width="179" height="16" rx="8" fill="#F5F5F6"/>
</g>
<defs>
<filter id="filter0_d_79_1947" x="0" y="0" width="1302" height="586" filterUnits="userSpaceOnUse" color-interpolation-filters="sRGB">
<feFlood flood-opacity="0" result="BackgroundImageFix"/>
<feColorMatrix in="SourceAlpha" type="matrix" values="0 0 0 0 0 0 0 0 0 0 0 0 0 0 0 0 0 0 127 0" result="hardAlpha"/>
<feMorphology radius="10" operator="erode" in="SourceAlpha" result="effect1_dropShadow_79_1947"/>
<feOffset dy="4"/>
<feGaussianBlur stdDeviation="25"/>
<feComposite in2="hardAlpha" operator="out"/>
<feColorMatrix type="matrix" values="0 0 0 0 0 0 0 0 0 0 0 0 0 0 0 0 0 0 0.07 0"/>
<feBlend mode="normal" in2="BackgroundImageFix" result="effect1_dropShadow_79_1947"/>
<feBlend mode="normal" in="SourceGraphic" in2="effect1_dropShadow_79_1947" result="shape"/>
</filter>
<filter id="filter1_d_79_1947" x="0" y="0" width="1302" height="586" filterUnits="userSpaceOnUse" color-interpolation-filters="sRGB">
<feFlood flood-opacity="0" result="BackgroundImageFix"/>
<feColorMatrix in="SourceAlpha" type="matrix" values="0 0 0 0 0 0 0 0 0 0 0 0 0 0 0 0 0 0 127 0" result="hardAlpha"/>
<feMorphology radius="10" operator="erode" in="SourceAlpha" result="effect1_dropShadow_79_1947"/>
<feOffset dy="4"/>
<feGaussianBlur stdDeviation="25"/>
<feComposite in2="hardAlpha" operator="out"/>
<feColorMatrix type="matrix" values="0 0 0 0 0 0 0 0 0 0 0 0 0 0 0 0 0 0 0.07 0"/>
<feBlend mode="normal" in2="BackgroundImageFix" result="effect1_dropShadow_79_1947"/>
<feBlend mode="normal" in="SourceGraphic" in2="effect1_dropShadow_79_1947" result="shape"/>
</filter>
<clipPath id="clip0_79_1947">
<rect width="1222" height="506" fill="white" transform="translate(40 36)"/>
</clipPath>
</defs>
</svg>
