<svg width="21" height="22" viewBox="0 0 21 22" fill="none" xmlns="http://www.w3.org/2000/svg">
<path d="M0.5 21.0466L1.9137 15.8904C1.04247 14.3781 0.582192 12.6685 0.582192 10.9096C0.582192 5.41918 5.05342 0.95343 10.5384 0.95343C13.2014 0.95343 15.7 1.98905 17.5849 3.87398C19.4644 5.75343 20.5 8.25754 20.5 10.9151C20.5 16.4055 16.0288 20.8712 10.5438 20.8712H10.5384C8.8726 20.8712 7.23425 20.4548 5.78219 19.6603L0.5 21.0466ZM6.02329 17.863L6.32466 18.0438C7.59589 18.8 9.05342 19.1945 10.5384 19.2H10.5438C15.1082 19.2 18.8178 15.4904 18.8178 10.926C18.8178 8.71233 17.9575 6.63562 16.3959 5.07398C14.8342 3.51233 12.7575 2.64658 10.5438 2.64658C5.97945 2.64658 2.26438 6.35617 2.26438 10.9206C2.26438 12.4822 2.70274 14.0055 3.53014 15.326L3.7274 15.6384L2.88904 18.6904L6.02329 17.863Z" fill="white"/>
<path d="M0.845215 20.7014L2.2096 15.7205C1.36576 14.263 0.927407 12.6082 0.927407 10.9151C0.927407 5.61644 5.23974 1.30411 10.5384 1.30411C13.1082 1.30411 15.5247 2.30685 17.3384 4.12055C19.1521 5.93972 20.1548 8.35068 20.1493 10.9205C20.1493 16.2192 15.837 20.5315 10.5384 20.5315H10.5329C8.92193 20.5315 7.34384 20.126 5.9411 19.3644L0.845215 20.7014Z" fill="url(#paint0_linear_1028_1299)"/>
<path d="M0.5 21.0466L1.9137 15.8904C1.04247 14.3781 0.582192 12.6685 0.582192 10.9096C0.582192 5.41918 5.05342 0.95343 10.5384 0.95343C13.2014 0.95343 15.7 1.98905 17.5849 3.87398C19.4644 5.75343 20.5 8.25754 20.5 10.9151C20.5 16.4055 16.0288 20.8712 10.5438 20.8712H10.5384C8.8726 20.8712 7.23425 20.4548 5.78219 19.6603L0.5 21.0466ZM6.02329 17.863L6.32466 18.0438C7.59589 18.8 9.05342 19.1945 10.5384 19.2H10.5438C15.1082 19.2 18.8178 15.4904 18.8178 10.926C18.8178 8.71233 17.9575 6.63562 16.3959 5.07398C14.8342 3.51233 12.7575 2.64658 10.5438 2.64658C5.97945 2.64658 2.26438 6.35617 2.26438 10.9206C2.26438 12.4822 2.70274 14.0055 3.53014 15.326L3.7274 15.6384L2.88904 18.6904L6.02329 17.863Z" fill="url(#paint1_linear_1028_1299)"/>
<path d="M8.05058 6.75072C7.86427 6.33428 7.66701 6.3288 7.49167 6.32332C7.34921 6.31784 7.17934 6.31784 7.01496 6.31784C6.85058 6.31784 6.58208 6.37811 6.35195 6.63017C6.12181 6.87674 5.48071 7.47948 5.48071 8.70688C5.48071 9.9288 6.37386 11.1124 6.49441 11.2822C6.62044 11.4466 8.21496 14.0384 10.7465 15.0356C12.8506 15.863 13.278 15.6987 13.7328 15.6603C14.1876 15.6165 15.2067 15.0576 15.415 14.4767C15.6232 13.8959 15.6232 13.3973 15.5574 13.2932C15.4972 13.1891 15.3273 13.1288 15.0807 13.0028C14.8341 12.8767 13.6067 12.274 13.3821 12.1918C13.1519 12.1096 12.9876 12.0658 12.8232 12.3178C12.6588 12.5644 12.1821 13.1288 12.0341 13.2932C11.8917 13.4576 11.7437 13.4795 11.4972 13.3535C11.2506 13.2274 10.4451 12.9644 9.49715 12.1206C8.75742 11.463 8.25879 10.6466 8.11085 10.4C7.96838 10.1535 8.09441 10.0165 8.22044 9.89044C8.33003 9.78085 8.46701 9.60003 8.59304 9.45209C8.71907 9.30414 8.75742 9.20551 8.83962 9.03565C8.92181 8.87127 8.88345 8.72332 8.8177 8.59729C8.75742 8.47127 8.27523 7.24387 8.05058 6.75072Z" fill="white"/>
<defs>
<linearGradient id="paint0_linear_1028_1299" x1="10.4973" y1="20.7014" x2="10.4973" y2="1.30411" gradientUnits="userSpaceOnUse">
<stop stop-color="#20B038"/>
<stop offset="1" stop-color="#60D66A"/>
</linearGradient>
<linearGradient id="paint1_linear_1028_1299" x1="10.5" y1="21.0466" x2="10.5" y2="0.95343" gradientUnits="userSpaceOnUse">
<stop stop-color="#F9F9F9"/>
<stop offset="1" stop-color="white"/>
</linearGradient>
</defs>
</svg>
