<svg width="560" height="506" viewBox="0 0 560 506" fill="none" xmlns="http://www.w3.org/2000/svg">
<g filter="url(#filter0_d_148_1995)">
<g clip-path="url(#clip0_148_1995)">
<rect x="30" y="76.9796" width="233.965" height="352.041" rx="8.74636" fill="white"/>
<path d="M30 175.376H263.965V82.8106C263.965 79.5903 261.354 76.9797 258.134 76.9797H35.8309C32.6106 76.9797 30 79.5903 30 82.8106V175.376Z" fill="#F5F5F6"/>
<circle cx="45.6689" cy="92.6501" r="4.00875" fill="#EA356B"/>
<circle cx="56.6025" cy="92.6501" r="4.00875" fill="#EAD835"/>
<circle cx="67.5341" cy="92.6501" r="4.00875" fill="#35EA68"/>
<rect x="37.2852" y="264.298" width="83.0904" height="117.347" rx="5.8309" fill="#F5F5F6"/>
<rect x="84.6602" y="360.508" width="29.1545" height="10.9329" rx="2.91545" fill="#E5E6E8"/>
<ellipse cx="62.2538" cy="366.496" rx="5.25962" ry="5.25952" fill="#F5F5F6"/>
<path d="M67.1847 366.496C67.1847 369.219 64.977 371.427 62.2538 371.427C59.5305 371.427 57.3229 369.219 57.3229 366.496C57.3229 363.773 59.5305 361.565 62.2538 361.565C64.977 361.565 67.1847 363.773 67.1847 366.496Z" stroke="#A9A9A9" stroke-opacity="0.3" stroke-width="0.657446"/>
<ellipse cx="55.6776" cy="366.496" rx="5.25962" ry="5.25952" fill="#F5F5F6"/>
<path d="M60.6085 366.496C60.6085 369.219 58.4009 371.427 55.6776 371.427C52.9543 371.427 50.7467 369.219 50.7467 366.496C50.7467 363.773 52.9543 361.565 55.6776 361.565C58.4009 361.565 60.6085 363.773 60.6085 366.496Z" stroke="#A9A9A9" stroke-opacity="0.3" stroke-width="0.657446"/>
<ellipse cx="49.1053" cy="366.496" rx="5.25962" ry="5.25952" fill="#F5F5F6"/>
<path d="M54.0362 366.496C54.0362 369.219 51.8286 371.427 49.1053 371.427C46.3821 371.427 44.1744 369.219 44.1744 366.496C44.1744 363.773 46.3821 361.565 49.1053 361.565C51.8286 361.565 54.0362 363.773 54.0362 366.496Z" stroke="#A9A9A9" stroke-opacity="0.3" stroke-width="0.657446"/>
<rect x="129.85" y="264.297" width="83.0904" height="117.347" rx="5.8309" fill="#F5F5F6"/>
<rect x="177.225" y="360.507" width="29.1545" height="10.9329" rx="2.91545" fill="#E5E6E8"/>
<ellipse cx="154.818" cy="366.495" rx="5.25962" ry="5.25952" fill="#F5F5F6"/>
<path d="M159.749 366.495C159.749 369.219 157.541 371.426 154.818 371.426C152.095 371.426 149.887 369.219 149.887 366.495C149.887 363.772 152.095 361.565 154.818 361.565C157.541 361.565 159.749 363.772 159.749 366.495Z" stroke="#A9A9A9" stroke-opacity="0.3" stroke-width="0.657446"/>
<ellipse cx="148.242" cy="366.495" rx="5.25962" ry="5.25952" fill="#F5F5F6"/>
<path d="M153.173 366.495C153.173 369.219 150.965 371.426 148.242 371.426C145.519 371.426 143.311 369.219 143.311 366.495C143.311 363.772 145.519 361.565 148.242 361.565C150.965 361.565 153.173 363.772 153.173 366.495Z" stroke="#A9A9A9" stroke-opacity="0.3" stroke-width="0.657446"/>
<ellipse cx="141.67" cy="366.495" rx="5.25962" ry="5.25952" fill="#F5F5F6"/>
<path d="M146.601 366.495C146.601 369.219 144.393 371.426 141.67 371.426C138.947 371.426 136.739 369.219 136.739 366.495C136.739 363.772 138.947 361.565 141.67 361.565C144.393 361.565 146.601 363.772 146.601 366.495Z" stroke="#A9A9A9" stroke-opacity="0.3" stroke-width="0.657446"/>
<rect x="222.422" y="264.297" width="83.0904" height="117.347" rx="5.8309" fill="#F5F5F6"/>
<ellipse cx="247.39" cy="366.496" rx="5.25962" ry="5.25952" fill="#F5F5F6"/>
<path d="M252.321 366.496C252.321 369.219 250.114 371.427 247.39 371.427C244.667 371.427 242.46 369.219 242.46 366.496C242.46 363.773 244.667 361.565 247.39 361.565C250.114 361.565 252.321 363.773 252.321 366.496Z" stroke="#A9A9A9" stroke-opacity="0.3" stroke-width="0.657446"/>
<ellipse cx="240.814" cy="366.496" rx="5.25962" ry="5.25952" fill="#F5F5F6"/>
<path d="M245.745 366.496C245.745 369.219 243.538 371.427 240.814 371.427C238.091 371.427 235.883 369.219 235.883 366.496C235.883 363.773 238.091 361.565 240.814 361.565C243.538 361.565 245.745 363.773 245.745 366.496Z" stroke="#A9A9A9" stroke-opacity="0.3" stroke-width="0.657446"/>
<ellipse cx="234.242" cy="366.496" rx="5.25962" ry="5.25952" fill="#F5F5F6"/>
<path d="M239.173 366.496C239.173 369.219 236.965 371.427 234.242 371.427C231.519 371.427 229.311 369.219 229.311 366.496C229.311 363.773 231.519 361.565 234.242 361.565C236.965 361.565 239.173 363.773 239.173 366.496Z" stroke="#A9A9A9" stroke-opacity="0.3" stroke-width="0.657446"/>
<rect x="41.6602" y="141.848" width="107.143" height="10.9329" rx="5.46647" fill="#D8D8DB"/>
<rect x="41.6602" y="122.898" width="201.895" height="10.9329" rx="5.46647" fill="#D8D8DB"/>
<rect x="30" y="397.679" width="233.965" height="31.3411" fill="#F5F5F6"/>
<rect x="37.291" y="187.767" width="215.743" height="29.8834" rx="5.8309" fill="#F5F5F6"/>
<rect x="37.291" y="232.956" width="52.4781" height="16.035" rx="5.8309" fill="#2370F2"/>
<rect x="95.5977" y="232.956" width="52.4781" height="16.035" rx="5.8309" fill="#F5F5F6"/>
<rect x="153.908" y="232.956" width="52.4781" height="16.035" rx="5.8309" fill="#F5F5F6"/>
<rect x="212.215" y="232.956" width="52.4781" height="16.035" rx="5.8309" fill="#F5F5F6"/>
</g>
</g>
<g filter="url(#filter1_d_148_1995)">
<rect x="296.035" y="76.9796" width="233.965" height="352.041" rx="8.74636" fill="white" shape-rendering="crispEdges"/>
<circle cx="311.706" cy="92.6501" r="4.00875" fill="#EA356B"/>
<circle cx="322.64" cy="92.6501" r="4.00875" fill="#EAD835"/>
<circle cx="333.571" cy="92.6501" r="4.00875" fill="#35EA68"/>
<rect width="210.641" height="61.9534" rx="5.8309" transform="matrix(1 0 0 -1 307.697 175.376)" fill="#F5F5F6"/>
<rect x="307.697" y="191.411" width="210.641" height="29.8834" rx="5.8309" fill="#F5F5F6"/>
<rect x="307.697" y="237.329" width="210.641" height="115.889" rx="5.8309" fill="#F5F5F6"/>
<rect width="88.9213" height="29.1545" rx="5.8309" transform="matrix(1 0 0 -1 307.697 411.528)" fill="#2370F2"/>
</g>
<defs>
<filter id="filter0_d_148_1995" x="0.84548" y="50.7405" width="292.274" height="410.35" filterUnits="userSpaceOnUse" color-interpolation-filters="sRGB">
<feFlood flood-opacity="0" result="BackgroundImageFix"/>
<feColorMatrix in="SourceAlpha" type="matrix" values="0 0 0 0 0 0 0 0 0 0 0 0 0 0 0 0 0 0 127 0" result="hardAlpha"/>
<feMorphology radius="7.28863" operator="erode" in="SourceAlpha" result="effect1_dropShadow_148_1995"/>
<feOffset dy="2.91545"/>
<feGaussianBlur stdDeviation="18.2216"/>
<feComposite in2="hardAlpha" operator="out"/>
<feColorMatrix type="matrix" values="0 0 0 0 0 0 0 0 0 0 0 0 0 0 0 0 0 0 0.07 0"/>
<feBlend mode="normal" in2="BackgroundImageFix" result="effect1_dropShadow_148_1995"/>
<feBlend mode="normal" in="SourceGraphic" in2="effect1_dropShadow_148_1995" result="shape"/>
</filter>
<filter id="filter1_d_148_1995" x="266.881" y="50.7405" width="292.274" height="410.35" filterUnits="userSpaceOnUse" color-interpolation-filters="sRGB">
<feFlood flood-opacity="0" result="BackgroundImageFix"/>
<feColorMatrix in="SourceAlpha" type="matrix" values="0 0 0 0 0 0 0 0 0 0 0 0 0 0 0 0 0 0 127 0" result="hardAlpha"/>
<feMorphology radius="7.28863" operator="erode" in="SourceAlpha" result="effect1_dropShadow_148_1995"/>
<feOffset dy="2.91545"/>
<feGaussianBlur stdDeviation="18.2216"/>
<feComposite in2="hardAlpha" operator="out"/>
<feColorMatrix type="matrix" values="0 0 0 0 0 0 0 0 0 0 0 0 0 0 0 0 0 0 0.07 0"/>
<feBlend mode="normal" in2="BackgroundImageFix" result="effect1_dropShadow_148_1995"/>
<feBlend mode="normal" in="SourceGraphic" in2="effect1_dropShadow_148_1995" result="shape"/>
</filter>
<clipPath id="clip0_148_1995">
<rect x="30" y="76.9796" width="233.965" height="352.041" rx="8.74636" fill="white"/>
</clipPath>
</defs>
</svg>
