<svg width="500" height="506" viewBox="0 0 500 506" fill="none" xmlns="http://www.w3.org/2000/svg">
<g clip-path="url(#clip0_148_2177)">
<g filter="url(#filter0_d_148_2177)">
<rect width="500" height="506" rx="16" fill="white"/>
</g>
<rect x="24" y="91" width="455" height="41" rx="12" fill="#F5F5F6"/>
<rect x="24" y="223" width="174" height="160" rx="16" fill="#F5F5F6"/>
<rect x="24" y="411" width="455" height="160" rx="16" fill="#F5F5F6"/>
<rect x="214" y="223" width="174" height="160" rx="16" fill="#F5F5F6"/>
<rect x="404" y="223" width="174" height="160" rx="16" fill="#F5F5F6"/>
</g>
<circle cx="25.5" cy="28.5" r="5.5" fill="#EA356B"/>
<circle cx="40.5" cy="28.5" r="5.5" fill="#EAD835"/>
<circle cx="55.5" cy="28.5" r="5.5" fill="#35EA68"/>
<rect x="24" y="163" width="80" height="33" rx="16.5" fill="#1877F2"/>
<rect x="118" y="163" width="80" height="33" rx="16.5" fill="#F5F5F6"/>
<rect x="210" y="163" width="80" height="33" rx="16.5" fill="#F5F5F6"/>
<rect x="304" y="163" width="80" height="33" rx="16.5" fill="#F5F5F6"/>
<rect x="397" y="163" width="79" height="33" rx="16.5" fill="#F5F5F6"/>
<defs>
<filter id="filter0_d_148_2177" x="-40" y="-36" width="580" height="586" filterUnits="userSpaceOnUse" color-interpolation-filters="sRGB">
<feFlood flood-opacity="0" result="BackgroundImageFix"/>
<feColorMatrix in="SourceAlpha" type="matrix" values="0 0 0 0 0 0 0 0 0 0 0 0 0 0 0 0 0 0 127 0" result="hardAlpha"/>
<feMorphology radius="10" operator="erode" in="SourceAlpha" result="effect1_dropShadow_148_2177"/>
<feOffset dy="4"/>
<feGaussianBlur stdDeviation="25"/>
<feComposite in2="hardAlpha" operator="out"/>
<feColorMatrix type="matrix" values="0 0 0 0 0 0 0 0 0 0 0 0 0 0 0 0 0 0 0.07 0"/>
<feBlend mode="normal" in2="BackgroundImageFix" result="effect1_dropShadow_148_2177"/>
<feBlend mode="normal" in="SourceGraphic" in2="effect1_dropShadow_148_2177" result="shape"/>
</filter>
<clipPath id="clip0_148_2177">
<rect width="500" height="506" fill="white"/>
</clipPath>
</defs>
</svg>
