<svg width="500" height="506" viewBox="0 0 500 506" fill="none" xmlns="http://www.w3.org/2000/svg">
<g clip-path="url(#clip0_148_2044)">
<g filter="url(#filter0_d_148_2044)">
<rect width="500" height="506" rx="16" fill="white"/>
</g>
<path d="M25 164.607C25 161.511 27.5106 159 30.6075 159H187.617C190.714 159 193.224 161.511 193.224 164.607V263.439H25V164.607Z" fill="#F5F5F6"/>
<rect x="154.674" y="175.823" width="25.2336" height="23.1308" rx="5.60748" fill="#E4E4E7"/>
<path d="M29.9065 271.15L31.0081 274.54H34.5729L31.6889 276.635L32.7905 280.026L29.9065 277.93L27.0225 280.026L28.1241 276.635L25.2401 274.54H28.805L29.9065 271.15Z" fill="#C7C7CD"/>
<path d="M42.5237 271.15L43.6253 274.54H47.1901L44.3061 276.635L45.4077 280.026L42.5237 277.93L39.6397 280.026L40.7413 276.635L37.8573 274.54H41.4221L42.5237 271.15Z" fill="#C7C7CD"/>
<path d="M55.1409 271.15L56.2425 274.54H59.8073L56.9233 276.635L58.0249 280.026L55.1409 277.93L52.2569 280.026L53.3585 276.635L50.4745 274.54H54.0393L55.1409 271.15Z" fill="#C7C7CD"/>
<path d="M67.7562 271.15L68.8577 274.54H72.4226L69.5386 276.635L70.6401 280.026L67.7562 277.93L64.8722 280.026L65.9737 276.635L63.0898 274.54H66.6546L67.7562 271.15Z" fill="#C7C7CD"/>
<path d="M80.3733 271.15L81.4749 274.54H85.0397L82.1557 276.635L83.2573 280.026L80.3733 277.93L77.4893 280.026L78.5909 276.635L75.7069 274.54H79.2718L80.3733 271.15Z" fill="#E4E4E7"/>
<rect x="25" y="291.477" width="125.467" height="11.215" rx="5.60748" fill="#F5F5F6"/>
<path d="M205.84 164.608C205.84 161.511 208.35 159 211.447 159H368.457C371.554 159 374.064 161.511 374.064 164.608V263.439H205.84V164.608Z" fill="#F5F5F6"/>
<rect x="335.514" y="175.823" width="25.2336" height="23.1308" rx="5.60748" fill="#E4E4E7"/>
<path d="M210.746 271.15L211.848 274.54H215.413L212.529 276.635L213.63 280.026L210.746 277.93L207.862 280.026L208.964 276.635L206.08 274.54H209.645L210.746 271.15Z" fill="#C7C7CD"/>
<path d="M223.364 271.15L224.465 274.54H228.03L225.146 276.635L226.248 280.026L223.364 277.93L220.48 280.026L221.581 276.635L218.697 274.54H222.262L223.364 271.15Z" fill="#C7C7CD"/>
<path d="M235.981 271.15L237.082 274.54H240.647L237.763 276.635L238.865 280.026L235.981 277.93L233.097 280.026L234.198 276.635L231.314 274.54H234.879L235.981 271.15Z" fill="#C7C7CD"/>
<path d="M248.596 271.15L249.698 274.54H253.262L250.378 276.635L251.48 280.026L248.596 277.93L245.712 280.026L246.814 276.635L243.93 274.54H247.494L248.596 271.15Z" fill="#C7C7CD"/>
<path d="M261.213 271.15L262.315 274.54H265.88L262.996 276.635L264.097 280.026L261.213 277.93L258.329 280.026L259.431 276.635L256.547 274.54H260.112L261.213 271.15Z" fill="#E4E4E7"/>
<rect x="205.84" y="291.477" width="125.467" height="11.215" rx="5.60748" fill="#F5F5F6"/>
<path d="M386.684 164.608C386.684 161.511 389.194 159 392.291 159H549.3C552.397 159 554.908 161.511 554.908 164.608V263.439H386.684V164.608Z" fill="#F5F5F6"/>
<path d="M391.59 271.15L392.692 274.54H396.257L393.373 276.635L394.474 280.026L391.59 277.93L388.706 280.026L389.808 276.635L386.924 274.54H390.489L391.59 271.15Z" fill="#C7C7CD"/>
<path d="M404.207 271.15L405.309 274.54H408.874L405.99 276.635L407.091 280.026L404.207 277.93L401.323 280.026L402.425 276.635L399.541 274.54H403.106L404.207 271.15Z" fill="#C7C7CD"/>
<path d="M416.825 271.15L417.926 274.54H421.491L418.607 276.635L419.709 280.026L416.825 277.93L413.941 280.026L415.042 276.635L412.158 274.54H415.723L416.825 271.15Z" fill="#C7C7CD"/>
<path d="M429.44 271.15L430.541 274.54H434.106L431.222 276.635L432.324 280.026L429.44 277.93L426.556 280.026L427.657 276.635L424.773 274.54H428.338L429.44 271.15Z" fill="#C7C7CD"/>
<path d="M442.057 271.15L443.159 274.54H446.723L443.839 276.635L444.941 280.026L442.057 277.93L439.173 280.026L440.275 276.635L437.391 274.54H440.955L442.057 271.15Z" fill="#E4E4E7"/>
<rect x="386.684" y="291.477" width="125.467" height="11.215" rx="5.60748" fill="#F5F5F6"/>
<path d="M25 358.607C25 355.511 27.5106 353 30.6075 353H187.617C190.714 353 193.224 355.511 193.224 358.607V457.439H25V358.607Z" fill="#F5F5F6"/>
<rect x="154.674" y="369.823" width="25.2336" height="23.1308" rx="5.60748" fill="#E4E4E7"/>
<path d="M29.9065 465.15L31.0081 468.54H34.5729L31.6889 470.635L32.7905 474.026L29.9065 471.93L27.0225 474.026L28.1241 470.635L25.2401 468.54H28.805L29.9065 465.15Z" fill="#C7C7CD"/>
<path d="M42.5237 465.15L43.6253 468.54H47.1901L44.3061 470.635L45.4077 474.026L42.5237 471.93L39.6397 474.026L40.7413 470.635L37.8573 468.54H41.4221L42.5237 465.15Z" fill="#C7C7CD"/>
<path d="M55.1409 465.15L56.2425 468.54H59.8073L56.9233 470.635L58.0249 474.026L55.1409 471.93L52.2569 474.026L53.3585 470.635L50.4745 468.54H54.0393L55.1409 465.15Z" fill="#C7C7CD"/>
<path d="M67.7562 465.15L68.8577 468.54H72.4226L69.5386 470.635L70.6401 474.026L67.7562 471.93L64.8722 474.026L65.9737 470.635L63.0898 468.54H66.6546L67.7562 465.15Z" fill="#C7C7CD"/>
<path d="M80.3733 465.15L81.4749 468.54H85.0397L82.1557 470.635L83.2573 474.026L80.3733 471.93L77.4893 474.026L78.5909 470.635L75.7069 468.54H79.2718L80.3733 465.15Z" fill="#E4E4E7"/>
<rect x="25" y="485.477" width="125.467" height="11.215" rx="5.60748" fill="#F5F5F6"/>
<path d="M205.84 358.608C205.84 355.511 208.35 353 211.447 353H368.457C371.554 353 374.064 355.511 374.064 358.608V457.439H205.84V358.608Z" fill="#F5F5F6"/>
<rect x="335.514" y="369.823" width="25.2336" height="23.1308" rx="5.60748" fill="#E4E4E7"/>
<path d="M210.746 465.15L211.848 468.54H215.413L212.529 470.635L213.63 474.026L210.746 471.93L207.862 474.026L208.964 470.635L206.08 468.54H209.645L210.746 465.15Z" fill="#C7C7CD"/>
<path d="M223.364 465.15L224.465 468.54H228.03L225.146 470.635L226.248 474.026L223.364 471.93L220.48 474.026L221.581 470.635L218.697 468.54H222.262L223.364 465.15Z" fill="#C7C7CD"/>
<path d="M235.981 465.15L237.082 468.54H240.647L237.763 470.635L238.865 474.026L235.981 471.93L233.097 474.026L234.198 470.635L231.314 468.54H234.879L235.981 465.15Z" fill="#C7C7CD"/>
<path d="M248.596 465.15L249.698 468.54H253.262L250.378 470.635L251.48 474.026L248.596 471.93L245.712 474.026L246.814 470.635L243.93 468.54H247.494L248.596 465.15Z" fill="#C7C7CD"/>
<path d="M261.213 465.15L262.315 468.54H265.88L262.996 470.635L264.097 474.026L261.213 471.93L258.329 474.026L259.431 470.635L256.547 468.54H260.112L261.213 465.15Z" fill="#E4E4E7"/>
<rect x="205.84" y="485.477" width="125.467" height="11.215" rx="5.60748" fill="#F5F5F6"/>
<path d="M386.684 358.608C386.684 355.511 389.194 353 392.291 353H549.3C552.397 353 554.908 355.511 554.908 358.608V457.439H386.684V358.608Z" fill="#F5F5F6"/>
<path d="M391.59 465.15L392.692 468.54H396.257L393.373 470.635L394.474 474.026L391.59 471.93L388.706 474.026L389.808 470.635L386.924 468.54H390.489L391.59 465.15Z" fill="#C7C7CD"/>
<path d="M404.207 465.15L405.309 468.54H408.874L405.99 470.635L407.091 474.026L404.207 471.93L401.323 474.026L402.425 470.635L399.541 468.54H403.106L404.207 465.15Z" fill="#C7C7CD"/>
<path d="M416.825 465.15L417.926 468.54H421.491L418.607 470.635L419.709 474.026L416.825 471.93L413.941 474.026L415.042 470.635L412.158 468.54H415.723L416.825 465.15Z" fill="#C7C7CD"/>
<path d="M429.44 465.15L430.541 468.54H434.106L431.222 470.635L432.324 474.026L429.44 471.93L426.556 474.026L427.657 470.635L424.773 468.54H428.338L429.44 465.15Z" fill="#C7C7CD"/>
<path d="M442.057 465.15L443.159 468.54H446.723L443.839 470.635L444.941 474.026L442.057 471.93L439.173 474.026L440.275 470.635L437.391 468.54H440.955L442.057 465.15Z" fill="#E4E4E7"/>
<rect x="386.684" y="485.477" width="125.467" height="11.215" rx="5.60748" fill="#F5F5F6"/>
</g>
<circle cx="25.5" cy="28.5" r="5.5" fill="#EA356B"/>
<circle cx="40.5" cy="28.5" r="5.5" fill="#EAD835"/>
<circle cx="55.5" cy="28.5" r="5.5" fill="#35EA68"/>
<rect x="24" y="93" width="54" height="26" rx="13" fill="#1877F2"/>
<rect x="87" y="93" width="54" height="26" rx="13" fill="#F5F5F6"/>
<rect x="149" y="93" width="54" height="26" rx="13" fill="#F5F5F6"/>
<rect x="212" y="93" width="54" height="26" rx="13" fill="#F5F5F6"/>
<rect x="275" y="93" width="53" height="26" rx="13" fill="#F5F5F6"/>
<defs>
<filter id="filter0_d_148_2044" x="-40" y="-36" width="580" height="586" filterUnits="userSpaceOnUse" color-interpolation-filters="sRGB">
<feFlood flood-opacity="0" result="BackgroundImageFix"/>
<feColorMatrix in="SourceAlpha" type="matrix" values="0 0 0 0 0 0 0 0 0 0 0 0 0 0 0 0 0 0 127 0" result="hardAlpha"/>
<feMorphology radius="10" operator="erode" in="SourceAlpha" result="effect1_dropShadow_148_2044"/>
<feOffset dy="4"/>
<feGaussianBlur stdDeviation="25"/>
<feComposite in2="hardAlpha" operator="out"/>
<feColorMatrix type="matrix" values="0 0 0 0 0 0 0 0 0 0 0 0 0 0 0 0 0 0 0.07 0"/>
<feBlend mode="normal" in2="BackgroundImageFix" result="effect1_dropShadow_148_2044"/>
<feBlend mode="normal" in="SourceGraphic" in2="effect1_dropShadow_148_2044" result="shape"/>
</filter>
<clipPath id="clip0_148_2044">
<rect width="500" height="506" fill="white"/>
</clipPath>
</defs>
</svg>
