<svg width="580" height="586" viewBox="0 0 580 586" fill="none" xmlns="http://www.w3.org/2000/svg">
<g filter="url(#filter0_d_148_1929)">
<rect x="40" y="36" width="500" height="506" rx="16" fill="white"/>
</g>
<circle cx="65.5" cy="64.5" r="5.5" fill="#EA356B"/>
<circle cx="80.5" cy="64.5" r="5.5" fill="#EAD835"/>
<circle cx="95.5" cy="64.5" r="5.5" fill="#35EA68"/>
<rect width="416" height="193" rx="16" transform="matrix(-1 0 0 1 500 328)" fill="#FBFBFC"/>
<rect x="84" y="253" width="71" height="28" rx="14" fill="#F5F5F6"/>
<rect x="101" y="465" width="71" height="28" rx="14" fill="#1877F2"/>
<rect x="165" y="253" width="71" height="28" rx="14" fill="#F5F5F6"/>
<rect x="80" y="189" width="264" height="31" rx="15.5" fill="#F5F5F6"/>
<rect x="80" y="139" width="146" height="31" rx="15.5" fill="#F5F5F6"/>
<rect x="101" y="414" width="378" height="31" rx="15.5" fill="#ECECEE"/>
<rect x="101" y="364" width="378" height="31" rx="15.5" fill="#ECECEE"/>
<defs>
<filter id="filter0_d_148_1929" x="0" y="0" width="580" height="586" filterUnits="userSpaceOnUse" color-interpolation-filters="sRGB">
<feFlood flood-opacity="0" result="BackgroundImageFix"/>
<feColorMatrix in="SourceAlpha" type="matrix" values="0 0 0 0 0 0 0 0 0 0 0 0 0 0 0 0 0 0 127 0" result="hardAlpha"/>
<feMorphology radius="10" operator="erode" in="SourceAlpha" result="effect1_dropShadow_148_1929"/>
<feOffset dy="4"/>
<feGaussianBlur stdDeviation="25"/>
<feComposite in2="hardAlpha" operator="out"/>
<feColorMatrix type="matrix" values="0 0 0 0 0 0 0 0 0 0 0 0 0 0 0 0 0 0 0.07 0"/>
<feBlend mode="normal" in2="BackgroundImageFix" result="effect1_dropShadow_148_1929"/>
<feBlend mode="normal" in="SourceGraphic" in2="effect1_dropShadow_148_1929" result="shape"/>
</filter>
</defs>
</svg>
