<svg width="500" height="506" viewBox="0 0 500 506" fill="none" xmlns="http://www.w3.org/2000/svg">
<g clip-path="url(#clip0_148_2284)">
<g filter="url(#filter0_d_148_2284)">
<rect width="500" height="506" rx="16" fill="white"/>
</g>
<g clip-path="url(#clip1_148_2284)">
<rect x="30" y="151" width="441" height="175" rx="8" fill="white"/>
<path d="M44.4489 155.088V156.182H39.9943V155.088H44.4489ZM50.8883 155.088V156.182H46.4338V155.088H50.8883ZM59.1374 160.179C58.6535 160.179 58.2144 160.088 57.82 159.906C57.4255 159.72 57.1123 159.453 56.8803 159.105C56.6483 158.754 56.5323 158.33 56.5323 157.832C56.5323 157.395 56.6185 157.04 56.7908 156.768C56.9632 156.493 57.1935 156.278 57.4819 156.122C57.7702 155.966 58.0884 155.85 58.4364 155.774C58.7878 155.695 59.1407 155.632 59.4954 155.585C59.9594 155.526 60.3356 155.481 60.6239 155.451C60.9156 155.418 61.1277 155.363 61.2603 155.287C61.3962 155.211 61.4641 155.078 61.4641 154.889V154.849C61.4641 154.359 61.3299 153.978 61.0614 153.706C60.7963 153.434 60.3936 153.298 59.8533 153.298C59.2932 153.298 58.854 153.421 58.5359 153.666C58.2177 153.911 57.994 154.173 57.8647 154.452L56.7511 154.054C56.9499 153.59 57.2151 153.229 57.5465 152.97C57.8813 152.708 58.2459 152.526 58.6403 152.423C59.038 152.317 59.4291 152.264 59.8136 152.264C60.0588 152.264 60.3406 152.294 60.6587 152.354C60.9802 152.41 61.2901 152.528 61.5884 152.707C61.89 152.886 62.1403 153.156 62.3391 153.517C62.538 153.878 62.6374 154.362 62.6374 154.969V160H61.4641V158.966H61.4045C61.3249 159.132 61.1924 159.309 61.0067 159.498C60.8211 159.687 60.5742 159.848 60.266 159.98C59.9577 160.113 59.5816 160.179 59.1374 160.179ZM59.3164 159.125C59.7804 159.125 60.1715 159.034 60.4897 158.852C60.8112 158.669 61.0531 158.434 61.2156 158.146C61.3813 157.857 61.4641 157.554 61.4641 157.236V156.162C61.4144 156.222 61.305 156.276 61.136 156.326C60.9703 156.372 60.7781 156.414 60.5593 156.45C60.3439 156.483 60.1334 156.513 59.9279 156.54C59.7257 156.563 59.5617 156.583 59.4357 156.599C59.1308 156.639 58.8458 156.704 58.5806 156.793C58.3188 156.879 58.1067 157.01 57.9442 157.186C57.7852 157.358 57.7056 157.594 57.7056 157.892C57.7056 158.3 57.8564 158.608 58.158 158.817C58.4629 159.022 58.8491 159.125 59.3164 159.125ZM64.7789 160V152.364H65.9125V153.557H66.0119C66.171 153.149 66.4279 152.833 66.7825 152.607C67.1371 152.379 67.563 152.264 68.0602 152.264C68.564 152.264 68.9833 152.379 69.318 152.607C69.6561 152.833 69.9196 153.149 70.1085 153.557H70.188C70.3836 153.162 70.6769 152.849 71.068 152.617C71.4591 152.382 71.9281 152.264 72.475 152.264C73.1577 152.264 73.7162 152.478 74.1504 152.906C74.5846 153.33 74.8017 153.991 74.8017 154.889V160H73.6284V154.889C73.6284 154.326 73.4743 153.923 73.166 153.681C72.8578 153.439 72.4949 153.318 72.0772 153.318C71.5403 153.318 71.1243 153.481 70.8294 153.805C70.5344 154.127 70.3869 154.535 70.3869 155.028V160H69.1937V154.77C69.1937 154.336 69.0529 153.986 68.7711 153.721C68.4894 153.452 68.1265 153.318 67.6824 153.318C67.3774 153.318 67.0924 153.399 66.8272 153.562C66.5654 153.724 66.3533 153.95 66.1909 154.238C66.0318 154.523 65.9522 154.853 65.9522 155.227V160H64.7789Z" fill="#6B7280"/>
<path d="M44.4489 192.088V193.182H39.9943V192.088H44.4489ZM50.8883 192.088V193.182H46.4338V192.088H50.8883ZM59.1374 197.179C58.6535 197.179 58.2144 197.088 57.82 196.906C57.4255 196.72 57.1123 196.453 56.8803 196.105C56.6483 195.754 56.5323 195.33 56.5323 194.832C56.5323 194.395 56.6185 194.04 56.7908 193.768C56.9632 193.493 57.1935 193.278 57.4819 193.122C57.7702 192.966 58.0884 192.85 58.4364 192.774C58.7878 192.695 59.1407 192.632 59.4954 192.585C59.9594 192.526 60.3356 192.481 60.6239 192.451C60.9156 192.418 61.1277 192.363 61.2603 192.287C61.3962 192.211 61.4641 192.078 61.4641 191.889V191.849C61.4641 191.359 61.3299 190.978 61.0614 190.706C60.7963 190.434 60.3936 190.298 59.8533 190.298C59.2932 190.298 58.854 190.421 58.5359 190.666C58.2177 190.911 57.994 191.173 57.8647 191.452L56.7511 191.054C56.9499 190.59 57.2151 190.229 57.5465 189.97C57.8813 189.708 58.2459 189.526 58.6403 189.423C59.038 189.317 59.4291 189.264 59.8136 189.264C60.0588 189.264 60.3406 189.294 60.6587 189.354C60.9802 189.41 61.2901 189.528 61.5884 189.707C61.89 189.886 62.1403 190.156 62.3391 190.517C62.538 190.878 62.6374 191.362 62.6374 191.969V197H61.4641V195.966H61.4045C61.3249 196.132 61.1924 196.309 61.0067 196.498C60.8211 196.687 60.5742 196.848 60.266 196.98C59.9577 197.113 59.5816 197.179 59.1374 197.179ZM59.3164 196.125C59.7804 196.125 60.1715 196.034 60.4897 195.852C60.8112 195.669 61.0531 195.434 61.2156 195.146C61.3813 194.857 61.4641 194.554 61.4641 194.236V193.162C61.4144 193.222 61.305 193.276 61.136 193.326C60.9703 193.372 60.7781 193.414 60.5593 193.45C60.3439 193.483 60.1334 193.513 59.9279 193.54C59.7257 193.563 59.5617 193.583 59.4357 193.599C59.1308 193.639 58.8458 193.704 58.5806 193.793C58.3188 193.879 58.1067 194.01 57.9442 194.186C57.7852 194.358 57.7056 194.594 57.7056 194.892C57.7056 195.3 57.8564 195.608 58.158 195.817C58.4629 196.022 58.8491 196.125 59.3164 196.125ZM64.7789 197V189.364H65.9125V190.557H66.0119C66.171 190.149 66.4279 189.833 66.7825 189.607C67.1371 189.379 67.563 189.264 68.0602 189.264C68.564 189.264 68.9833 189.379 69.318 189.607C69.6561 189.833 69.9196 190.149 70.1085 190.557H70.188C70.3836 190.162 70.6769 189.849 71.068 189.617C71.4591 189.382 71.9281 189.264 72.475 189.264C73.1577 189.264 73.7162 189.478 74.1504 189.906C74.5846 190.33 74.8017 190.991 74.8017 191.889V197H73.6284V191.889C73.6284 191.326 73.4743 190.923 73.166 190.681C72.8578 190.439 72.4949 190.318 72.0772 190.318C71.5403 190.318 71.1243 190.481 70.8294 190.805C70.5344 191.127 70.3869 191.535 70.3869 192.028V197H69.1937V191.77C69.1937 191.336 69.0529 190.986 68.7711 190.721C68.4894 190.452 68.1265 190.318 67.6824 190.318C67.3774 190.318 67.0924 190.399 66.8272 190.562C66.5654 190.724 66.3533 190.95 66.1909 191.238C66.0318 191.523 65.9522 191.853 65.9522 192.227V197H64.7789Z" fill="#6B7280"/>
<path d="M44.4489 229.088V230.182H39.9943V229.088H44.4489ZM50.8883 229.088V230.182H46.4338V229.088H50.8883ZM59.1374 234.179C58.6535 234.179 58.2144 234.088 57.82 233.906C57.4255 233.72 57.1123 233.453 56.8803 233.105C56.6483 232.754 56.5323 232.33 56.5323 231.832C56.5323 231.395 56.6185 231.04 56.7908 230.768C56.9632 230.493 57.1935 230.278 57.4819 230.122C57.7702 229.966 58.0884 229.85 58.4364 229.774C58.7878 229.695 59.1407 229.632 59.4954 229.585C59.9594 229.526 60.3356 229.481 60.6239 229.451C60.9156 229.418 61.1277 229.363 61.2603 229.287C61.3962 229.211 61.4641 229.078 61.4641 228.889V228.849C61.4641 228.359 61.3299 227.978 61.0614 227.706C60.7963 227.434 60.3936 227.298 59.8533 227.298C59.2932 227.298 58.854 227.421 58.5359 227.666C58.2177 227.911 57.994 228.173 57.8647 228.452L56.7511 228.054C56.9499 227.59 57.2151 227.229 57.5465 226.97C57.8813 226.708 58.2459 226.526 58.6403 226.423C59.038 226.317 59.4291 226.264 59.8136 226.264C60.0588 226.264 60.3406 226.294 60.6587 226.354C60.9802 226.41 61.2901 226.528 61.5884 226.707C61.89 226.886 62.1403 227.156 62.3391 227.517C62.538 227.878 62.6374 228.362 62.6374 228.969V234H61.4641V232.966H61.4045C61.3249 233.132 61.1924 233.309 61.0067 233.498C60.8211 233.687 60.5742 233.848 60.266 233.98C59.9577 234.113 59.5816 234.179 59.1374 234.179ZM59.3164 233.125C59.7804 233.125 60.1715 233.034 60.4897 232.852C60.8112 232.669 61.0531 232.434 61.2156 232.146C61.3813 231.857 61.4641 231.554 61.4641 231.236V230.162C61.4144 230.222 61.305 230.276 61.136 230.326C60.9703 230.372 60.7781 230.414 60.5593 230.45C60.3439 230.483 60.1334 230.513 59.9279 230.54C59.7257 230.563 59.5617 230.583 59.4357 230.599C59.1308 230.639 58.8458 230.704 58.5806 230.793C58.3188 230.879 58.1067 231.01 57.9442 231.186C57.7852 231.358 57.7056 231.594 57.7056 231.892C57.7056 232.3 57.8564 232.608 58.158 232.817C58.4629 233.022 58.8491 233.125 59.3164 233.125ZM64.7789 234V226.364H65.9125V227.557H66.0119C66.171 227.149 66.4279 226.833 66.7825 226.607C67.1371 226.379 67.563 226.264 68.0602 226.264C68.564 226.264 68.9833 226.379 69.318 226.607C69.6561 226.833 69.9196 227.149 70.1085 227.557H70.188C70.3836 227.162 70.6769 226.849 71.068 226.617C71.4591 226.382 71.9281 226.264 72.475 226.264C73.1577 226.264 73.7162 226.478 74.1504 226.906C74.5846 227.33 74.8017 227.991 74.8017 228.889V234H73.6284V228.889C73.6284 228.326 73.4743 227.923 73.166 227.681C72.8578 227.439 72.4949 227.318 72.0772 227.318C71.5403 227.318 71.1243 227.481 70.8294 227.805C70.5344 228.127 70.3869 228.535 70.3869 229.028V234H69.1937V228.77C69.1937 228.336 69.0529 227.986 68.7711 227.721C68.4894 227.452 68.1265 227.318 67.6824 227.318C67.3774 227.318 67.0924 227.399 66.8272 227.562C66.5654 227.724 66.3533 227.95 66.1909 228.238C66.0318 228.523 65.9522 228.853 65.9522 229.227V234H64.7789Z" fill="#6B7280"/>
<path d="M43.4489 266.088V267.182H38.9943V266.088H43.4489ZM49.8883 266.088V267.182H45.4338V266.088H49.8883ZM55.8903 273.864V263.364H57.0238V264.577H57.163C57.2492 264.444 57.3685 264.275 57.521 264.07C57.6767 263.861 57.8988 263.675 58.1871 263.513C58.4788 263.347 58.8732 263.264 59.3704 263.264C60.0134 263.264 60.5801 263.425 61.0707 263.746C61.5612 264.068 61.944 264.524 62.2191 265.114C62.4942 265.704 62.6317 266.4 62.6317 267.202C62.6317 268.01 62.4942 268.711 62.2191 269.305C61.944 269.895 61.5629 270.352 61.0756 270.677C60.5884 270.998 60.0266 271.159 59.3903 271.159C58.8997 271.159 58.507 271.078 58.212 270.915C57.917 270.75 57.69 270.562 57.5309 270.354C57.3718 270.142 57.2492 269.966 57.163 269.827H57.0636V273.864H55.8903ZM57.0437 267.182C57.0437 267.759 57.1282 268.267 57.2972 268.708C57.4663 269.146 57.7132 269.489 58.038 269.737C58.3628 269.982 58.7605 270.105 59.2312 270.105C59.7217 270.105 60.131 269.976 60.4592 269.717C60.7906 269.455 61.0392 269.104 61.2049 268.663C61.3739 268.219 61.4585 267.725 61.4585 267.182C61.4585 266.645 61.3756 266.161 61.2099 265.73C61.0475 265.296 60.8005 264.953 60.4691 264.701C60.141 264.446 59.7283 264.318 59.2312 264.318C58.7539 264.318 58.3529 264.439 58.0281 264.681C57.7032 264.92 57.458 265.254 57.2923 265.685C57.1265 266.113 57.0437 266.612 57.0437 267.182ZM64.4215 271V263.364H65.555V264.557H65.6545C65.8136 264.149 66.0704 263.833 66.4251 263.607C66.7797 263.379 67.2056 263.264 67.7028 263.264C68.2066 263.264 68.6258 263.379 68.9606 263.607C69.2987 263.833 69.5621 264.149 69.7511 264.557H69.8306C70.0262 264.162 70.3195 263.849 70.7106 263.617C71.1017 263.382 71.5707 263.264 72.1175 263.264C72.8003 263.264 73.3588 263.478 73.793 263.906C74.2272 264.33 74.4442 264.991 74.4442 265.889V271H73.271V265.889C73.271 265.326 73.1168 264.923 72.8086 264.681C72.5004 264.439 72.1374 264.318 71.7198 264.318C71.1829 264.318 70.7669 264.481 70.4719 264.805C70.177 265.127 70.0295 265.535 70.0295 266.028V271H68.8363V265.77C68.8363 265.336 68.6954 264.986 68.4137 264.721C68.132 264.452 67.7691 264.318 67.3249 264.318C67.02 264.318 66.735 264.399 66.4698 264.562C66.208 264.724 65.9959 264.95 65.8335 265.238C65.6744 265.523 65.5948 265.853 65.5948 266.227V271H64.4215Z" fill="#6B7280"/>
<path d="M43.4489 303.088V304.182H38.9943V303.088H43.4489ZM49.8883 303.088V304.182H45.4338V303.088H49.8883ZM55.8903 310.864V300.364H57.0238V301.577H57.163C57.2492 301.444 57.3685 301.275 57.521 301.07C57.6767 300.861 57.8988 300.675 58.1871 300.513C58.4788 300.347 58.8732 300.264 59.3704 300.264C60.0134 300.264 60.5801 300.425 61.0707 300.746C61.5612 301.068 61.944 301.524 62.2191 302.114C62.4942 302.704 62.6317 303.4 62.6317 304.202C62.6317 305.01 62.4942 305.711 62.2191 306.305C61.944 306.895 61.5629 307.352 61.0756 307.677C60.5884 307.998 60.0266 308.159 59.3903 308.159C58.8997 308.159 58.507 308.078 58.212 307.915C57.917 307.75 57.69 307.562 57.5309 307.354C57.3718 307.142 57.2492 306.966 57.163 306.827H57.0636V310.864H55.8903ZM57.0437 304.182C57.0437 304.759 57.1282 305.267 57.2972 305.708C57.4663 306.146 57.7132 306.489 58.038 306.737C58.3628 306.982 58.7605 307.105 59.2312 307.105C59.7217 307.105 60.131 306.976 60.4592 306.717C60.7906 306.455 61.0392 306.104 61.2049 305.663C61.3739 305.219 61.4585 304.725 61.4585 304.182C61.4585 303.645 61.3756 303.161 61.2099 302.73C61.0475 302.296 60.8005 301.953 60.4691 301.701C60.141 301.446 59.7283 301.318 59.2312 301.318C58.7539 301.318 58.3529 301.439 58.0281 301.681C57.7032 301.92 57.458 302.254 57.2923 302.685C57.1265 303.113 57.0437 303.612 57.0437 304.182ZM64.4215 308V300.364H65.555V301.557H65.6545C65.8136 301.149 66.0704 300.833 66.4251 300.607C66.7797 300.379 67.2056 300.264 67.7028 300.264C68.2066 300.264 68.6258 300.379 68.9606 300.607C69.2987 300.833 69.5621 301.149 69.7511 301.557H69.8306C70.0262 301.162 70.3195 300.849 70.7106 300.617C71.1017 300.382 71.5707 300.264 72.1175 300.264C72.8003 300.264 73.3588 300.478 73.793 300.906C74.2272 301.33 74.4442 301.991 74.4442 302.889V308H73.271V302.889C73.271 302.326 73.1168 301.923 72.8086 301.681C72.5004 301.439 72.1374 301.318 71.7198 301.318C71.1829 301.318 70.7669 301.481 70.4719 301.805C70.177 302.127 70.0295 302.535 70.0295 303.028V308H68.8363V302.77C68.8363 302.336 68.6954 301.986 68.4137 301.721C68.132 301.452 67.7691 301.318 67.3249 301.318C67.02 301.318 66.735 301.399 66.4698 301.562C66.208 301.724 65.9959 301.95 65.8335 302.238C65.6744 302.523 65.5948 302.853 65.5948 303.227V308H64.4215Z" fill="#6B7280"/>
<path d="M84.5 313V310.515H83.5V313H84.5ZM84.5 305.544V300.574H83.5V305.544H84.5ZM84.5 295.603V290.632H83.5V295.603H84.5ZM84.5 285.662V280.691H83.5V285.662H84.5ZM84.5 275.721V270.75H83.5V275.721H84.5ZM84.5 265.779V260.809H83.5V265.779H84.5ZM84.5 255.838V250.868H83.5V255.838H84.5ZM84.5 245.897V240.926H83.5V245.897H84.5ZM84.5 235.956V230.985H83.5V235.956H84.5ZM84.5 226.015V221.044H83.5V226.015H84.5ZM84.5 216.074V211.103H83.5V216.074H84.5ZM84.5 206.132V201.162H83.5V206.132H84.5ZM84.5 196.191V191.221H83.5V196.191H84.5ZM84.5 186.25V181.279H83.5V186.25H84.5ZM84.5 176.309V171.338H83.5V176.309H84.5ZM84.5 166.368V161.397H83.5V166.368H84.5ZM84.5 156.427V151.456H83.5V156.427H84.5ZM84.5 146.485V144H83.5V146.485H84.5ZM85 313V310.515H83V313H85ZM85 305.544V300.574H83V305.544H85ZM85 295.603V290.632H83V295.603H85ZM85 285.662V280.691H83V285.662H85ZM85 275.721V270.75H83V275.721H85ZM85 265.779V260.809H83V265.779H85ZM85 255.838V250.868H83V255.838H85ZM85 245.897V240.926H83V245.897H85ZM85 235.956V230.985H83V235.956H85ZM85 226.015V221.044H83V226.015H85ZM85 216.074V211.103H83V216.074H85ZM85 206.132V201.162H83V206.132H85ZM85 196.191V191.221H83V196.191H85ZM85 186.25V181.279H83V186.25H85ZM85 176.309V171.338H83V176.309H85ZM85 166.368V161.397H83V166.368H85ZM85 156.427V151.456H83V156.427H85ZM85 146.485V144H83V146.485H85Z" fill="#E5E7EB" mask="url(#path-5-outside-1_148_2284)"/>
<mask id="path-12-outside-2_148_2284" maskUnits="userSpaceOnUse" x="86" y="214" width="385" height="53" fill="black">
<rect fill="white" x="86" y="214" width="385" height="53"/>
<path d="M87 214H471V267H87V214Z"/>
</mask>
<path d="M87 214H471V267H87V214Z" fill="#FEECDC"/>
<path d="M96.233 246V235.818H99.6733C100.472 235.818 101.125 235.962 101.632 236.251C102.143 236.536 102.52 236.922 102.766 237.409C103.011 237.896 103.134 238.44 103.134 239.04C103.134 239.64 103.011 240.185 102.766 240.675C102.524 241.166 102.149 241.557 101.642 241.849C101.135 242.137 100.485 242.281 99.6932 242.281H97.2273V241.188H99.6534C100.2 241.188 100.639 241.093 100.971 240.904C101.302 240.715 101.543 240.46 101.692 240.138C101.844 239.814 101.92 239.447 101.92 239.04C101.92 238.632 101.844 238.268 101.692 237.946C101.543 237.625 101.301 237.373 100.966 237.19C100.631 237.005 100.187 236.912 99.6335 236.912H97.4659V246H96.233ZM107.981 246.159C107.291 246.159 106.687 245.995 106.166 245.667C105.649 245.339 105.245 244.88 104.953 244.29C104.665 243.7 104.521 243.01 104.521 242.222C104.521 241.426 104.665 240.732 104.953 240.138C105.245 239.545 105.649 239.085 106.166 238.756C106.687 238.428 107.291 238.264 107.981 238.264C108.67 238.264 109.273 238.428 109.79 238.756C110.311 239.085 110.715 239.545 111.004 240.138C111.295 240.732 111.441 241.426 111.441 242.222C111.441 243.01 111.295 243.7 111.004 244.29C110.715 244.88 110.311 245.339 109.79 245.667C109.273 245.995 108.67 246.159 107.981 246.159ZM107.981 245.105C108.504 245.105 108.935 244.971 109.273 244.702C109.612 244.434 109.862 244.081 110.024 243.643C110.187 243.206 110.268 242.732 110.268 242.222C110.268 241.711 110.187 241.236 110.024 240.795C109.862 240.354 109.612 239.998 109.273 239.726C108.935 239.454 108.504 239.318 107.981 239.318C107.457 239.318 107.026 239.454 106.688 239.726C106.35 239.998 106.1 240.354 105.938 240.795C105.775 241.236 105.694 241.711 105.694 242.222C105.694 242.732 105.775 243.206 105.938 243.643C106.1 244.081 106.35 244.434 106.688 244.702C107.026 244.971 107.457 245.105 107.981 245.105ZM118.641 240.074L117.587 240.372C117.521 240.196 117.423 240.026 117.294 239.86C117.168 239.691 116.996 239.552 116.777 239.442C116.558 239.333 116.278 239.278 115.937 239.278C115.469 239.278 115.08 239.386 114.768 239.602C114.46 239.814 114.306 240.084 114.306 240.412C114.306 240.704 114.412 240.934 114.624 241.103C114.836 241.272 115.168 241.413 115.618 241.526L116.752 241.804C117.435 241.97 117.943 242.223 118.278 242.565C118.613 242.903 118.78 243.339 118.78 243.872C118.78 244.31 118.654 244.701 118.403 245.045C118.154 245.39 117.806 245.662 117.358 245.861C116.911 246.06 116.391 246.159 115.797 246.159C115.019 246.159 114.374 245.99 113.863 245.652C113.353 245.314 113.03 244.82 112.894 244.17L114.008 243.892C114.114 244.303 114.314 244.611 114.609 244.817C114.907 245.022 115.297 245.125 115.778 245.125C116.324 245.125 116.759 245.009 117.08 244.777C117.405 244.542 117.567 244.26 117.567 243.932C117.567 243.667 117.474 243.445 117.289 243.266C117.103 243.083 116.818 242.947 116.434 242.858L115.161 242.56C114.462 242.394 113.948 242.137 113.62 241.789C113.295 241.438 113.133 240.999 113.133 240.472C113.133 240.041 113.254 239.66 113.496 239.328C113.741 238.997 114.074 238.737 114.495 238.548C114.919 238.359 115.4 238.264 115.937 238.264C116.692 238.264 117.286 238.43 117.716 238.761C118.151 239.093 118.459 239.53 118.641 240.074ZM123.868 238.364V239.358H119.91V238.364H123.868ZM121.064 236.534H122.237V243.812C122.237 244.144 122.285 244.393 122.381 244.558C122.48 244.721 122.606 244.83 122.759 244.886C122.915 244.939 123.079 244.966 123.251 244.966C123.38 244.966 123.486 244.959 123.569 244.946C123.652 244.929 123.718 244.916 123.768 244.906L124.007 245.96C123.927 245.99 123.816 246.02 123.674 246.05C123.531 246.083 123.35 246.099 123.132 246.099C122.8 246.099 122.475 246.028 122.157 245.886C121.842 245.743 121.581 245.526 121.372 245.234C121.166 244.943 121.064 244.575 121.064 244.131V236.534ZM130.147 246H128.854L132.593 235.818H133.865L137.604 246H136.311L133.269 237.429H133.189L130.147 246ZM130.624 242.023H135.834V243.116H130.624V242.023ZM142.113 249.023C141.547 249.023 141.059 248.95 140.652 248.804C140.244 248.661 139.904 248.473 139.632 248.237C139.364 248.005 139.15 247.757 138.991 247.491L139.926 246.835C140.032 246.974 140.166 247.134 140.328 247.312C140.491 247.495 140.713 247.652 140.995 247.785C141.28 247.921 141.653 247.989 142.113 247.989C142.73 247.989 143.239 247.839 143.64 247.541C144.041 247.243 144.241 246.776 144.241 246.139V244.588H144.142C144.056 244.727 143.933 244.9 143.774 245.105C143.618 245.307 143.393 245.488 143.098 245.647C142.806 245.803 142.412 245.881 141.914 245.881C141.298 245.881 140.744 245.735 140.254 245.443C139.767 245.152 139.381 244.727 139.096 244.17C138.814 243.614 138.673 242.937 138.673 242.142C138.673 241.36 138.81 240.679 139.086 240.099C139.361 239.515 139.743 239.065 140.234 238.746C140.725 238.425 141.291 238.264 141.934 238.264C142.431 238.264 142.826 238.347 143.118 238.513C143.413 238.675 143.638 238.861 143.794 239.07C143.953 239.275 144.075 239.444 144.162 239.577H144.281V238.364H145.414V246.219C145.414 246.875 145.265 247.409 144.967 247.82C144.672 248.234 144.274 248.537 143.774 248.729C143.277 248.925 142.723 249.023 142.113 249.023ZM142.074 244.827C142.544 244.827 142.942 244.719 143.267 244.504C143.592 244.288 143.838 243.978 144.007 243.574C144.176 243.17 144.261 242.686 144.261 242.122C144.261 241.572 144.178 241.086 144.012 240.665C143.847 240.245 143.601 239.915 143.277 239.676C142.952 239.437 142.551 239.318 142.074 239.318C141.576 239.318 141.162 239.444 140.831 239.696C140.502 239.948 140.256 240.286 140.09 240.71C139.927 241.134 139.846 241.605 139.846 242.122C139.846 242.652 139.929 243.121 140.095 243.529C140.264 243.933 140.512 244.252 140.841 244.484C141.172 244.712 141.583 244.827 142.074 244.827ZM150.764 246.159C150.028 246.159 149.393 245.997 148.86 245.672C148.329 245.344 147.92 244.886 147.632 244.3C147.347 243.71 147.204 243.024 147.204 242.241C147.204 241.459 147.347 240.77 147.632 240.173C147.92 239.573 148.321 239.106 148.835 238.771C149.352 238.433 149.955 238.264 150.645 238.264C151.042 238.264 151.435 238.33 151.823 238.463C152.211 238.596 152.564 238.811 152.882 239.109C153.2 239.404 153.453 239.795 153.642 240.283C153.831 240.77 153.926 241.37 153.926 242.082V242.58H148.039V241.565H152.733C152.733 241.134 152.646 240.75 152.474 240.412C152.305 240.074 152.063 239.807 151.748 239.612C151.437 239.416 151.069 239.318 150.645 239.318C150.177 239.318 149.773 239.434 149.431 239.666C149.093 239.895 148.833 240.193 148.651 240.561C148.469 240.929 148.377 241.323 148.377 241.744V242.42C148.377 242.997 148.477 243.486 148.676 243.887C148.878 244.285 149.158 244.588 149.516 244.797C149.874 245.002 150.29 245.105 150.764 245.105C151.072 245.105 151.35 245.062 151.599 244.976C151.851 244.886 152.068 244.754 152.25 244.578C152.433 244.399 152.574 244.177 152.673 243.912L153.806 244.23C153.687 244.615 153.487 244.953 153.205 245.244C152.923 245.533 152.575 245.758 152.161 245.92C151.747 246.08 151.281 246.159 150.764 246.159ZM156.884 241.406V246H155.711V238.364H156.844V239.557H156.944C157.123 239.169 157.394 238.857 157.759 238.622C158.123 238.384 158.594 238.264 159.171 238.264C159.688 238.264 160.14 238.37 160.528 238.582C160.916 238.791 161.217 239.109 161.433 239.537C161.648 239.961 161.756 240.498 161.756 241.148V246H160.583V241.227C160.583 240.627 160.427 240.16 160.115 239.825C159.804 239.487 159.376 239.318 158.833 239.318C158.458 239.318 158.123 239.399 157.828 239.562C157.537 239.724 157.306 239.961 157.137 240.273C156.968 240.584 156.884 240.962 156.884 241.406ZM166.784 246.159C166.147 246.159 165.585 245.998 165.098 245.677C164.611 245.352 164.23 244.895 163.955 244.305C163.68 243.711 163.542 243.01 163.542 242.202C163.542 241.4 163.68 240.704 163.955 240.114C164.23 239.524 164.613 239.068 165.103 238.746C165.594 238.425 166.16 238.264 166.803 238.264C167.301 238.264 167.693 238.347 167.982 238.513C168.273 238.675 168.495 238.861 168.648 239.07C168.804 239.275 168.925 239.444 169.011 239.577H169.11V235.818H170.284V246H169.15V244.827H169.011C168.925 244.966 168.802 245.142 168.643 245.354C168.484 245.562 168.257 245.75 167.962 245.915C167.667 246.078 167.274 246.159 166.784 246.159ZM166.943 245.105C167.413 245.105 167.811 244.982 168.136 244.737C168.461 244.489 168.708 244.146 168.877 243.708C169.046 243.267 169.13 242.759 169.13 242.182C169.13 241.612 169.047 241.113 168.882 240.685C168.716 240.254 168.471 239.92 168.146 239.681C167.821 239.439 167.42 239.318 166.943 239.318C166.445 239.318 166.031 239.446 165.7 239.701C165.372 239.953 165.125 240.296 164.959 240.73C164.797 241.161 164.715 241.645 164.715 242.182C164.715 242.725 164.798 243.219 164.964 243.663C165.133 244.104 165.382 244.455 165.71 244.717C166.041 244.976 166.452 245.105 166.943 245.105ZM174.843 246.179C174.359 246.179 173.919 246.088 173.525 245.906C173.131 245.72 172.817 245.453 172.585 245.105C172.353 244.754 172.237 244.33 172.237 243.832C172.237 243.395 172.324 243.04 172.496 242.768C172.668 242.493 172.899 242.278 173.187 242.122C173.475 241.966 173.794 241.85 174.142 241.774C174.493 241.695 174.846 241.632 175.2 241.585C175.664 241.526 176.041 241.481 176.329 241.451C176.621 241.418 176.833 241.363 176.965 241.287C177.101 241.211 177.169 241.078 177.169 240.889V240.849C177.169 240.359 177.035 239.978 176.767 239.706C176.501 239.434 176.099 239.298 175.558 239.298C174.998 239.298 174.559 239.421 174.241 239.666C173.923 239.911 173.699 240.173 173.57 240.452L172.456 240.054C172.655 239.59 172.92 239.229 173.252 238.97C173.586 238.708 173.951 238.526 174.345 238.423C174.743 238.317 175.134 238.264 175.519 238.264C175.764 238.264 176.046 238.294 176.364 238.354C176.685 238.41 176.995 238.528 177.294 238.707C177.595 238.886 177.845 239.156 178.044 239.517C178.243 239.878 178.343 240.362 178.343 240.969V246H177.169V244.966H177.11C177.03 245.132 176.897 245.309 176.712 245.498C176.526 245.687 176.279 245.848 175.971 245.98C175.663 246.113 175.287 246.179 174.843 246.179ZM175.021 245.125C175.485 245.125 175.877 245.034 176.195 244.852C176.516 244.669 176.758 244.434 176.921 244.146C177.086 243.857 177.169 243.554 177.169 243.236V242.162C177.119 242.222 177.01 242.276 176.841 242.326C176.675 242.372 176.483 242.414 176.264 242.45C176.049 242.483 175.838 242.513 175.633 242.54C175.431 242.563 175.267 242.583 175.141 242.599C174.836 242.639 174.551 242.704 174.286 242.793C174.024 242.879 173.812 243.01 173.649 243.186C173.49 243.358 173.411 243.594 173.411 243.892C173.411 244.3 173.561 244.608 173.863 244.817C174.168 245.022 174.554 245.125 175.021 245.125ZM183.368 246.159C182.731 246.159 182.169 245.998 181.682 245.677C181.195 245.352 180.814 244.895 180.539 244.305C180.264 243.711 180.126 243.01 180.126 242.202C180.126 241.4 180.264 240.704 180.539 240.114C180.814 239.524 181.197 239.068 181.687 238.746C182.178 238.425 182.744 238.264 183.387 238.264C183.885 238.264 184.277 238.347 184.566 238.513C184.857 238.675 185.079 238.861 185.232 239.07C185.388 239.275 185.509 239.444 185.595 239.577H185.694V235.818H186.868V246H185.734V244.827H185.595C185.509 244.966 185.386 245.142 185.227 245.354C185.068 245.562 184.841 245.75 184.546 245.915C184.251 246.078 183.858 246.159 183.368 246.159ZM183.527 245.105C183.997 245.105 184.395 244.982 184.72 244.737C185.045 244.489 185.292 244.146 185.461 243.708C185.63 243.267 185.714 242.759 185.714 242.182C185.714 241.612 185.631 241.113 185.466 240.685C185.3 240.254 185.055 239.92 184.73 239.681C184.405 239.439 184.004 239.318 183.527 239.318C183.029 239.318 182.615 239.446 182.284 239.701C181.956 239.953 181.709 240.296 181.543 240.73C181.381 241.161 181.299 241.645 181.299 242.182C181.299 242.725 181.382 243.219 181.548 243.663C181.717 244.104 181.966 244.455 182.294 244.717C182.625 244.976 183.036 245.105 183.527 245.105ZM192.282 246.159C191.592 246.159 190.987 245.995 190.467 245.667C189.95 245.339 189.546 244.88 189.254 244.29C188.966 243.7 188.821 243.01 188.821 242.222C188.821 241.426 188.966 240.732 189.254 240.138C189.546 239.545 189.95 239.085 190.467 238.756C190.987 238.428 191.592 238.264 192.282 238.264C192.971 238.264 193.574 238.428 194.091 238.756C194.612 239.085 195.016 239.545 195.304 240.138C195.596 240.732 195.742 241.426 195.742 242.222C195.742 243.01 195.596 243.7 195.304 244.29C195.016 244.88 194.612 245.339 194.091 245.667C193.574 245.995 192.971 246.159 192.282 246.159ZM192.282 245.105C192.805 245.105 193.236 244.971 193.574 244.702C193.912 244.434 194.163 244.081 194.325 243.643C194.487 243.206 194.569 242.732 194.569 242.222C194.569 241.711 194.487 241.236 194.325 240.795C194.163 240.354 193.912 239.998 193.574 239.726C193.236 239.454 192.805 239.318 192.282 239.318C191.758 239.318 191.327 239.454 190.989 239.726C190.651 239.998 190.401 240.354 190.238 240.795C190.076 241.236 189.995 241.711 189.995 242.222C189.995 242.732 190.076 243.206 190.238 243.643C190.401 244.081 190.651 244.434 190.989 244.702C191.327 244.971 191.758 245.105 192.282 245.105Z" fill="#B43403"/>
<path d="M88 267V214H86V267H88Z" fill="#B43403" mask="url(#path-12-outside-2_148_2284)"/>
<path d="M449.525 165.4V162.2V165.4ZM449.525 162.2H452.894H449.525ZM449.525 162.2L452.894 165.4L449.525 162.2ZM459.631 165.4V162.2V165.4ZM459.631 162.2H456.262H459.631ZM459.631 162.2L456.262 165.4L459.631 162.2ZM449.525 168.6V171.8V168.6ZM449.525 171.8H452.894H449.525ZM449.525 171.8L452.894 168.6L449.525 171.8ZM459.631 171.8L456.262 168.6L459.631 171.8ZM459.631 171.8V168.6V171.8ZM459.631 171.8H456.262H459.631Z" fill="#6B7280"/>
<path fill-rule="evenodd" clip-rule="evenodd" d="M451.559 163L453.49 164.834C453.818 165.147 453.818 165.653 453.49 165.966C453.161 166.278 452.628 166.278 452.299 165.966L450.368 164.131V165.4C450.368 165.842 449.991 166.2 449.526 166.2C449.061 166.2 448.684 165.842 448.684 165.4V162.2C448.684 161.995 448.766 161.791 448.93 161.634C449.011 161.558 449.104 161.5 449.203 161.461C449.303 161.422 449.412 161.4 449.526 161.4H452.894C453.359 161.4 453.736 161.758 453.736 162.2C453.736 162.642 453.359 163 452.894 163H451.559ZM456.263 163C455.797 163 455.42 162.642 455.42 162.2C455.42 161.758 455.797 161.4 456.263 161.4H459.631C459.745 161.4 459.854 161.422 459.953 161.461C460.052 161.499 460.144 161.557 460.225 161.633L460.228 161.636C460.308 161.712 460.368 161.8 460.409 161.894C460.451 161.991 460.473 162.094 460.473 162.198L460.473 162.2V165.4C460.473 165.842 460.096 166.2 459.631 166.2C459.166 166.2 458.789 165.842 458.789 165.4V164.131L456.858 165.966C456.529 166.278 455.996 166.278 455.667 165.966C455.338 165.653 455.338 165.147 455.667 164.834L457.598 163H456.263ZM448.684 168.6C448.684 168.158 449.061 167.8 449.526 167.8C449.991 167.8 450.368 168.158 450.368 168.6V169.869L452.299 168.034C452.628 167.722 453.161 167.722 453.49 168.034C453.818 168.347 453.818 168.853 453.49 169.166L451.559 171H452.894C453.359 171 453.736 171.358 453.736 171.8C453.736 172.242 453.359 172.6 452.894 172.6H449.526L449.523 172.6C449.41 172.6 449.302 172.578 449.203 172.539C449.101 172.499 449.009 172.44 448.932 172.367L448.928 172.364C448.849 172.288 448.788 172.2 448.747 172.106C448.706 172.012 448.684 171.908 448.684 171.8V168.6Z" fill="#6B7280"/>
<path d="M456.263 172.6C455.797 172.6 455.42 172.242 455.42 171.8C455.42 171.358 455.797 171 456.263 171H457.598L455.667 169.166C455.338 168.853 455.338 168.347 455.667 168.034C455.996 167.722 456.529 167.722 456.858 168.034L458.789 169.869V168.6C458.789 168.158 459.166 167.8 459.631 167.8C460.096 167.8 460.473 168.158 460.473 168.6V171.799L460.473 171.802C460.473 171.91 460.45 172.013 460.409 172.106C460.367 172.203 460.305 172.291 460.228 172.364L460.225 172.367C460.144 172.443 460.052 172.501 459.953 172.539C459.854 172.578 459.745 172.6 459.631 172.6H456.263Z" fill="#6B7280"/>
<rect x="459" y="286" width="6" height="28" rx="3" fill="#D1D5DB"/>
</g>
<rect x="30.5" y="151.5" width="440" height="174" rx="7.5" stroke="#E5E7EB"/>
<rect x="30" y="91" width="288" height="31" rx="15.5" fill="#F5F5F6"/>
</g>
<circle cx="25.5" cy="28.5" r="5.5" fill="#EA356B"/>
<circle cx="40.5" cy="28.5" r="5.5" fill="#EAD835"/>
<circle cx="55.5" cy="28.5" r="5.5" fill="#35EA68"/>
<path d="M141 410C141 437.614 118.614 460 91 460C63.3858 460 41 437.614 41 410C41 382.386 63.3858 360 91 360C118.614 360 141 382.386 141 410ZM50.0814 410C50.0814 432.599 68.4013 450.919 91 450.919C113.599 450.919 131.919 432.599 131.919 410C131.919 387.401 113.599 369.081 91 369.081C68.4013 369.081 50.0814 387.401 50.0814 410Z" fill="#E5E7EB"/>
<path d="M135.925 416.948C138.403 417.331 140.745 415.632 140.902 413.129C141.302 406.751 140.476 400.341 138.454 394.249C135.954 386.717 131.697 379.888 126.035 374.327C120.373 368.767 113.469 364.634 105.893 362.27C98.3177 359.906 90.2881 359.379 82.4686 360.733C74.649 362.087 67.2641 365.283 60.9244 370.057C54.5847 374.83 49.4722 381.044 46.0098 388.185C42.5474 395.326 40.8345 403.188 41.0126 411.122C41.1567 417.539 42.5345 423.854 45.0559 429.727C46.0453 432.031 48.8218 432.844 51.027 431.65C53.2321 430.455 54.0257 427.706 53.0829 425.383C51.2215 420.794 50.2035 415.894 50.0917 410.918C49.946 404.426 51.3478 397.991 54.1813 392.147C57.0149 386.304 61.1987 381.218 66.387 377.312C71.5752 373.405 77.6188 370.79 84.0181 369.681C90.4174 368.573 96.9886 369.004 103.188 370.939C109.388 372.873 115.038 376.256 119.672 380.807C124.305 385.357 127.789 390.946 129.835 397.11C131.403 401.833 132.092 406.79 131.882 411.737C131.775 414.243 133.447 416.565 135.925 416.948Z" fill="#60D66A"/>
<path d="M296 410C296 437.614 273.614 460 246 460C218.386 460 196 437.614 196 410C196 382.386 218.386 360 246 360C273.614 360 296 382.386 296 410ZM205.081 410C205.081 432.599 223.401 450.919 246 450.919C268.599 450.919 286.919 432.599 286.919 410C286.919 387.401 268.599 369.081 246 369.081C223.401 369.081 205.081 387.401 205.081 410Z" fill="#E5E7EB"/>
<path d="M290.925 416.948C293.403 417.331 295.745 415.632 295.902 413.129C296.409 405.04 294.943 396.923 291.6 389.49C287.633 380.672 281.196 373.193 273.066 367.959C264.936 362.725 255.463 359.961 245.794 360C236.125 360.04 226.675 362.883 218.589 368.183C210.503 373.484 204.126 381.016 200.233 389.866C196.339 398.716 195.096 408.506 196.652 418.049C198.208 427.591 202.498 436.478 209.002 443.633C214.485 449.664 221.343 454.246 228.963 457.008C231.321 457.862 233.813 456.393 234.45 453.968C235.087 451.542 233.625 449.083 231.285 448.181C225.358 445.897 220.023 442.255 215.722 437.524C210.4 431.669 206.889 424.396 205.615 416.587C204.341 408.777 205.359 400.766 208.546 393.523C211.732 386.28 216.95 380.116 223.568 375.778C230.185 371.44 237.919 369.114 245.832 369.082C253.744 369.049 261.497 371.312 268.15 375.595C274.803 379.878 280.072 385.999 283.317 393.215C285.94 399.046 287.151 405.391 286.882 411.737C286.775 414.243 288.447 416.565 290.925 416.948Z" fill="#60D66A"/>
<path d="M451 410C451 437.614 428.614 460 401 460C373.386 460 351 437.614 351 410C351 382.386 373.386 360 401 360C428.614 360 451 382.386 451 410ZM360.081 410C360.081 432.599 378.401 450.919 401 450.919C423.599 450.919 441.919 432.599 441.919 410C441.919 387.401 423.599 369.081 401 369.081C378.401 369.081 360.081 387.401 360.081 410Z" fill="#E5E7EB"/>
<path d="M445.925 416.948C448.403 417.331 450.745 415.632 450.902 413.129C451.383 405.455 450.089 397.752 447.094 390.626C443.51 382.1 437.633 374.736 430.115 369.351C422.597 363.966 413.732 360.772 404.507 360.123C395.283 359.474 386.058 361.397 377.861 365.677C369.663 369.956 362.813 376.426 358.071 384.365C353.33 392.305 350.884 401.404 351.004 410.651C351.125 419.898 353.807 428.931 358.754 436.744C362.888 443.275 368.469 448.741 375.041 452.733C377.184 454.035 379.917 453.085 381.019 450.833C382.121 448.58 381.172 445.881 379.055 444.536C373.981 441.312 369.663 436.998 366.427 431.887C362.379 425.492 360.183 418.1 360.085 410.533C359.986 402.966 361.988 395.519 365.868 389.021C369.749 382.524 375.355 377.229 382.063 373.727C388.772 370.225 396.321 368.651 403.87 369.182C411.42 369.713 418.674 372.327 424.827 376.734C430.979 381.141 435.789 387.168 438.722 394.145C441.066 399.721 442.137 405.73 441.882 411.737C441.775 414.243 443.447 416.565 445.925 416.948Z" fill="#60D66A"/>
<defs>
<filter id="filter0_d_148_2284" x="-40" y="-36" width="580" height="586" filterUnits="userSpaceOnUse" color-interpolation-filters="sRGB">
<feFlood flood-opacity="0" result="BackgroundImageFix"/>
<feColorMatrix in="SourceAlpha" type="matrix" values="0 0 0 0 0 0 0 0 0 0 0 0 0 0 0 0 0 0 127 0" result="hardAlpha"/>
<feMorphology radius="10" operator="erode" in="SourceAlpha" result="effect1_dropShadow_148_2284"/>
<feOffset dy="4"/>
<feGaussianBlur stdDeviation="25"/>
<feComposite in2="hardAlpha" operator="out"/>
<feColorMatrix type="matrix" values="0 0 0 0 0 0 0 0 0 0 0 0 0 0 0 0 0 0 0.07 0"/>
<feBlend mode="normal" in2="BackgroundImageFix" result="effect1_dropShadow_148_2284"/>
<feBlend mode="normal" in="SourceGraphic" in2="effect1_dropShadow_148_2284" result="shape"/>
</filter>
<clipPath id="clip0_148_2284">
<rect width="500" height="506" fill="white"/>
</clipPath>
<clipPath id="clip1_148_2284">
<rect x="30" y="151" width="441" height="175" rx="8" fill="white"/>
</clipPath>
</defs>
</svg>
