<svg width="580" height="586" viewBox="0 0 580 586" fill="none" xmlns="http://www.w3.org/2000/svg">
<g filter="url(#filter0_d_147_1808)">
<rect x="40" y="36" width="500" height="506" rx="16" fill="white"/>
</g>
<circle cx="65.5" cy="64.5" r="5.5" fill="#EA356B"/>
<circle cx="80.5" cy="64.5" r="5.5" fill="#EAD835"/>
<circle cx="95.5" cy="64.5" r="5.5" fill="#35EA68"/>
<rect x="84" y="253" width="71" height="28" rx="14" fill="#1877F2"/>
<rect x="165" y="253" width="71" height="28" rx="14" fill="#F5F5F6"/>
<rect x="80" y="189" width="264" height="31" rx="15.5" fill="#F5F5F6"/>
<path d="M540 93H404C395.163 93 388 100.163 388 109V469C388 477.837 395.163 485 404 485H540V93Z" fill="#F5F5F6"/>
<rect x="80" y="139" width="146" height="31" rx="15.5" fill="#F5F5F6"/>
<rect x="86" y="437" width="139" height="15" rx="7.21608" fill="#F5F5F6"/>
<rect x="86" y="464" width="94" height="15" rx="7.21608" fill="#F5F5F6"/>
<circle cx="287.569" cy="458" r="14.4322" fill="#F5F5F6"/>
<circle cx="287.569" cy="458" r="13.5302" stroke="#A9A9A9" stroke-opacity="0.3" stroke-width="1.80402"/>
<circle cx="269.528" cy="458" r="14.4322" fill="#F5F5F6"/>
<circle cx="269.528" cy="458" r="13.5302" stroke="#A9A9A9" stroke-opacity="0.3" stroke-width="1.80402"/>
<circle cx="251.489" cy="458" r="14.4322" fill="#F5F5F6"/>
<circle cx="251.489" cy="458" r="13.5302" stroke="#A9A9A9" stroke-opacity="0.3" stroke-width="1.80402"/>
<defs>
<filter id="filter0_d_147_1808" x="0" y="0" width="580" height="586" filterUnits="userSpaceOnUse" color-interpolation-filters="sRGB">
<feFlood flood-opacity="0" result="BackgroundImageFix"/>
<feColorMatrix in="SourceAlpha" type="matrix" values="0 0 0 0 0 0 0 0 0 0 0 0 0 0 0 0 0 0 127 0" result="hardAlpha"/>
<feMorphology radius="10" operator="erode" in="SourceAlpha" result="effect1_dropShadow_147_1808"/>
<feOffset dy="4"/>
<feGaussianBlur stdDeviation="25"/>
<feComposite in2="hardAlpha" operator="out"/>
<feColorMatrix type="matrix" values="0 0 0 0 0 0 0 0 0 0 0 0 0 0 0 0 0 0 0.07 0"/>
<feBlend mode="normal" in2="BackgroundImageFix" result="effect1_dropShadow_147_1808"/>
<feBlend mode="normal" in="SourceGraphic" in2="effect1_dropShadow_147_1808" result="shape"/>
</filter>
</defs>
</svg>
